<svg width="175" height="26" viewBox="0 0 175 26" fill="none" xmlns="http://www.w3.org/2000/svg">
<path d="M12.956 20.356L20.376 0.420002H16.288L10.604 16.52L4.92003 0.420002H0.832031L8.25203 20.356H12.956Z" fill="#2C7291"/>
<path d="M25.4976 20.356V5.908H21.8856V20.356H25.4976ZM23.7056 3.752C25.0496 3.752 25.7776 2.94 25.7776 1.876C25.7776 0.812002 25.0496 0 23.7056 0C22.3616 0 21.6056 0.812002 21.6056 1.876C21.6056 2.94 22.3616 3.752 23.7056 3.752Z" fill="#3A3A3A"/>
<path d="M34.812 20.636C39.32 20.636 41.616 17.864 41.616 14.756H38.228C37.948 16.912 36.716 17.892 34.812 17.892C32.516 17.892 31.172 16.324 31.172 13.132C31.172 9.94 32.636 8.484 34.7 8.484C36.884 8.484 35.636 8.484 40.3692 8.484V5.908C35.136 5.908 39.488 5.908 34.812 5.908C30.192 5.908 27.56 8.596 27.56 13.132C27.56 17.696 30.192 20.636 34.812 20.636Z" fill="#3A3A3A"/>
<path d="M47.0052 20.496C47.6492 20.496 48.7972 20.412 49.3852 20.356V17.92L47.8732 17.948C46.7252 17.948 46.2492 17.556 46.2492 16.436V8.484H49.3852V5.908H46.2492V1.54H42.6372V5.908H40.3692V8.484H42.6372V16.296C42.6372 19.488 43.7292 20.496 47.0052 20.496Z" fill="#3A3A3A"/>
<path d="M58.5601 20.636C63.2921 20.636 65.9241 17.696 65.9241 13.132C65.9241 8.596 63.2921 5.628 58.5601 5.628C53.8561 5.628 51.2241 8.596 51.2241 13.132C51.2241 17.696 53.8561 20.636 58.5601 20.636ZM58.5601 17.892C56.1801 17.892 54.8361 16.324 54.8361 13.132C54.8361 9.94 56.1801 8.372 58.5601 8.372C60.9681 8.372 62.3121 9.94 62.3121 13.132C62.3121 16.324 60.9681 17.892 58.5601 17.892Z" fill="#3A3A3A"/>
<path d="M71.6109 20.356V13.636C71.6109 10.696 73.0949 9.044 75.3069 9.044L76.7909 9.072V5.908C76.4549 5.824 75.8669 5.712 75.4749 5.712C73.4589 5.712 72.1989 6.58 71.4429 9.128V5.908H67.9989V20.356H71.6109Z" fill="#3A3A3A"/>
<path d="M78.859 25.844H80.287C83.815 25.844 85.719 24.388 87.455 19.712L92.607 5.908H88.827L85.075 17.556L81.323 5.908H77.543L82.695 19.712C82.891 20.216 82.975 20.692 82.975 21.112C82.975 22.456 81.995 23.268 80.315 23.268H78.859V25.844Z" fill="#3A3A3A"/>
<path d="M120.172 10.388C120.172 4.144 116.84 0.420002 110.26 0.420002H102.336V20.356H110.26C116.84 20.356 120.172 16.66 120.172 10.388ZM116.364 10.388C116.364 15.008 114.404 17.36 110.456 17.36H106.144V3.416H110.456C114.404 3.416 116.364 5.768 116.364 10.388Z" fill="#3A3A3A"/>
<path d="M129.013 20.636C133.745 20.636 136.377 17.696 136.377 13.132C136.377 8.596 133.745 5.628 129.013 5.628C124.309 5.628 121.677 8.596 121.677 13.132C121.677 17.696 124.309 20.636 129.013 20.636ZM129.013 17.892C126.633 17.892 125.289 16.324 125.289 13.132C125.289 9.94 126.633 8.372 129.013 8.372C131.421 8.372 132.765 9.94 132.765 13.132C132.765 16.324 131.421 17.892 129.013 17.892Z" fill="#3A3A3A"/>
<path d="M158.388 20.356V10.808C158.388 7.308 156.932 5.628 153.964 5.628C151.976 5.628 150.548 6.664 149.82 8.344C149.232 6.524 147.916 5.628 145.816 5.628C143.828 5.628 142.596 6.72 141.896 8.26V5.908H138.452V20.356H141.924V12.18C141.924 9.828 143.128 8.568 144.64 8.568C146.012 8.568 146.656 9.464 146.656 11.396V20.356H150.156V12.18C150.156 9.828 151.36 8.568 152.872 8.568C154.272 8.568 154.916 9.464 154.916 11.396V20.356H158.388Z" fill="#3A3A3A"/>
<path d="M167.787 20.636C171.679 20.636 173.891 18.76 174.507 15.792H171.175C170.755 17.276 169.579 18.172 167.787 18.172C165.575 18.172 164.175 16.828 164.063 13.888H174.759C174.787 13.552 174.815 13.272 174.815 12.964C174.815 8.708 172.295 5.628 167.619 5.628C162.971 5.628 160.451 8.68 160.451 13.132C160.451 17.696 163.083 20.636 167.787 20.636ZM167.619 8.092C169.607 8.092 170.895 9.24 171.203 11.536H164.063C164.371 9.24 165.631 8.092 167.619 8.092Z" fill="#3A3A3A"/>
</svg>
