<svg width="203" height="179" viewBox="0 0 203 179" fill="none" xmlns="http://www.w3.org/2000/svg">
<g id="leaf-1">
<path id="Vector 1" d="M48.8082 160.729C49.2381 155.41 54.6019 148.589 57.2301 145.844L61.8126 142.642C63.1995 141.764 66.0577 139.895 66.3952 139.441C66.7327 138.987 70.2019 136.69 71.8943 135.599L76.8987 131.83L82.7468 126.926L86.8046 116.726C83.5311 117.376 74.1064 120.415 62.596 127.365C51.0855 134.316 44.7077 144.318 42.9575 148.45C40.4113 148.32 48.2709 167.378 48.8082 160.729Z" fill="#0070A0" stroke="#0070A0"/>
<path id="Vector 2" d="M50.0997 154.474C50.5296 149.155 55.8934 142.334 58.5216 139.589L63.1041 136.387C64.491 135.509 67.3492 133.64 67.6867 133.186C68.0242 132.732 71.4934 130.435 73.1858 129.344L78.1902 125.575L84.0383 120.671L88.0961 110.471C84.8226 111.122 75.3979 114.16 63.8875 121.11C52.3771 128.061 45.9992 138.063 44.249 142.196C41.7029 142.065 49.5624 161.123 50.0997 154.474Z" fill="#0070A0" stroke="#0070A0"/>
<path id="Vector 4" d="M139.437 48.3765L152.16 35.2405L149.777 19.0579C149.777 19.0579 144.11 5.30945 145.11 7.80939C146.11 10.3093 129.901 40.2981 126.895 42.1367C111.61 55.8096 104.009 71.8843 106.265 70.3979C106.265 70.3979 90.9475 93.3737 122.998 81.0746C133.965 76.8661 135.146 53.5567 135.146 53.5567L139.437 48.3765Z" fill="#0070A0" stroke="#0070A0"/>
<path id="Vector 9" d="M114.11 53.3094L99.6104 36.3094L101.61 34.3094C102.01 33.9094 102.11 34.1428 102.11 34.3094C102.944 33.9761 104.81 33.1094 105.61 32.3094C106.61 31.3094 107.11 31.8094 107.61 31.3094C108.11 30.8094 109.61 30.3094 110.11 29.8094L110.61 29.3094L114.11 27.3094L118.11 25.8094L127.61 22.8094V29.3094L124.11 41.8094L114.11 53.3094Z" fill="white"/>
<g id="Left-leaf-1">
<path d="M5.08086 108.6C8.65554 102.372 18.1843 100.166 22.9448 98.3306L28.8809 97.4568C31.0654 97.183 36.1871 101.153 38.4252 97.0625C38.7899 96.3959 42.1787 96.4742 44.8559 96.1158L54.4002 95.7215L69.1675 93.0422C69.1675 93.0422 85.5918 81.0219 76.3814 76.8186C67.171 72.6152 58.878 74.0294 40.9411 75.8915C23.0042 77.7537 9.53411 86.2728 5.04118 90.2996C2.03109 88.6811 0.612501 116.386 5.08086 108.6Z" fill="#0070A0"/>
<path fill-rule="evenodd" clip-rule="evenodd" d="M4.87699 107.564C5.96281 106.452 7.18328 105.368 8.53461 104.316C12.4067 101.257 16.1463 99.0538 19.7549 97.7071C24.83 95.7947 32.7935 94.9146 43.6451 95.0682C53.999 95.2102 61.3977 94.4591 65.8416 92.8173C69.2682 91.5243 72.3385 89.4877 75.0542 86.7074C76.146 85.5471 77.1846 83.607 78.1714 80.8867C67.3336 75.7997 54.5063 74.1908 39.6882 76.0631C39.1294 76.1428 38.622 76.0061 38.1691 75.6498C37.6929 75.266 37.4155 74.7953 37.334 74.2378C37.2549 73.6786 37.4058 73.161 37.7889 72.6863C38.1443 72.2322 38.6013 71.9645 39.1601 71.8848C55.5496 69.8091 69.7373 71.8223 81.7182 77.9258C90.0545 82.2545 97.2275 88.444 103.232 96.4971C103.576 96.9385 103.712 97.4538 103.638 98.0435C103.592 98.6112 103.349 99.0668 102.907 99.411L102.865 99.4438C102.374 99.7804 101.848 99.9033 101.286 99.8083C100.698 99.7342 100.23 99.4772 99.8862 99.0358C94.7799 92.1917 88.7936 86.7846 81.9322 82.8149C80.8168 85.7671 79.5386 88.0276 78.0974 89.5936C74.9221 92.8646 71.3102 95.2569 67.256 96.7724C62.3184 98.5777 54.435 99.4166 43.6048 99.2911C33.2491 99.1505 25.772 99.9403 21.1692 101.662C17.9221 102.905 14.585 104.883 11.1555 107.598C8.61636 109.575 6.62998 111.61 5.1969 113.702C4.6511 114.482 3.90401 114.775 2.95669 114.581C2.06359 114.345 1.53777 113.757 1.381 112.814C0.696531 108.291 0.316746 105.438 0.238118 104.257C-0.012531 98.2423 1.02923 92.9743 3.36332 88.4513C4.30289 86.6987 6.25182 84.2723 9.20535 81.1741C11.0613 79.286 12.1524 77.3263 12.4792 75.2982C12.5975 74.1415 12.9256 72.711 13.4616 71.0073C14.1517 68.6507 14.963 67.0434 15.8919 66.1875C17.4568 64.836 19.4146 63.6213 21.7696 62.5418C22.6507 62.0775 23.6083 61.6863 24.6463 61.3661L25.033 61.2645C28.0306 60.2155 31.4655 59.6696 35.3354 59.6275C38.9315 59.577 41.3772 59.2696 42.6674 58.7075L42.7842 58.6834C43.6237 58.3396 44.6643 57.7965 45.9032 57.0526C47.7048 56.005 49.3201 55.2334 50.7538 54.7387C53.27 53.7545 56.1921 53.7193 59.5186 54.6323C62.8124 55.6154 65.7771 57.3428 68.4113 59.815C69.8293 61.2389 72.2551 61.9882 75.6859 62.0664C79.6987 62.2676 82.3942 64.1603 83.7679 67.7466C83.9513 68.2692 84.0336 70.5105 84.0162 74.4722C83.9921 75.0682 83.7799 75.5667 83.3802 75.9652C82.96 76.3361 82.4629 76.5236 81.8901 76.527C81.3161 76.5313 80.8176 76.319 80.3985 75.8928C79.9998 75.4942 79.7974 75.0077 79.7941 74.4339C79.8198 71.2204 79.7945 69.4218 79.7169 69.0387C79.0618 67.287 77.6578 66.3636 75.4973 66.2709C71.0723 66.1687 67.7475 65.0327 65.524 62.8615C63.3816 60.8482 60.9864 59.4541 58.3407 58.6764C55.9988 58.0611 53.9418 58.0668 52.1676 58.6939C51.0482 59.0775 49.6717 59.7291 48.0347 60.6484C46.4157 61.6429 45.1223 62.3179 44.1552 62.6719C42.2977 63.3639 39.3711 63.7592 35.3668 63.8611C32.0274 63.8444 29.054 64.2975 26.4461 65.2201L26.2172 65.2657L25.9779 65.3852C25.2539 65.5936 24.4554 65.9054 23.5799 66.3209C21.4068 67.3477 19.7727 68.354 18.6781 69.3401C18.3426 69.6469 17.9358 70.6059 17.4603 72.218C17.0221 73.5347 16.7368 74.7332 16.6019 75.8136C16.1857 78.7532 14.7205 81.5137 12.2061 84.0936C9.39184 87.0835 7.68247 89.1906 7.08293 90.412C5.08684 94.2283 4.1993 98.7553 4.42041 103.995L4.87699 107.564Z" fill="black"/>
</g>
<path id="Left-leaf-2" fill-rule="evenodd" clip-rule="evenodd" d="M48.7896 160.683C49.0808 159.513 49.4653 158.306 49.9414 157.064C51.2908 153.477 52.8515 150.495 54.6248 148.118C57.1124 144.764 61.7428 140.863 68.5164 136.416C74.9778 132.171 79.3027 128.589 81.4921 125.673C83.171 123.407 84.3744 120.812 85.1031 117.889C85.3815 116.686 85.3595 115.004 85.038 112.843C76.5814 114.114 68.0852 118.453 59.5495 125.863C59.2307 126.148 58.8696 126.273 58.4669 126.234C58.0404 126.187 57.7072 126 57.4656 125.676C57.2248 125.35 57.1409 124.954 57.2154 124.489C57.2799 124.048 57.4711 123.685 57.7899 123.4C67.229 115.201 76.7065 110.552 86.2195 109.455C92.8668 108.745 99.4316 109.717 105.911 112.376C106.276 112.516 106.537 112.79 106.693 113.2C106.859 113.584 106.865 113.978 106.709 114.384L106.695 114.423C106.506 114.845 106.222 115.144 105.842 115.319C105.452 115.517 105.074 115.548 104.71 115.409C99.2006 113.15 93.6391 112.183 88.0284 112.507C88.3498 114.871 88.3332 116.859 87.9774 118.468C87.1323 121.9 85.7156 124.95 83.7242 127.622C81.2851 130.85 76.6901 134.691 69.9393 139.146C63.4773 143.393 59.1171 147.033 56.8567 150.067C55.2719 152.226 53.8833 154.894 52.6899 158.075C51.7952 160.409 51.2627 162.548 51.0923 164.492C51.0218 165.222 50.6596 165.724 50.0064 165.996C49.3722 166.218 48.8449 166.06 48.4246 165.521C46.4498 162.901 45.2363 161.227 44.7828 160.501C42.5653 156.742 41.4043 152.921 41.2991 149.037C41.2801 147.518 41.6553 145.142 42.4223 141.915C42.9244 139.924 42.9283 138.208 42.4353 136.768C42.112 135.975 41.8247 134.919 41.5725 133.6C41.192 131.797 41.1434 130.424 41.4252 129.485C41.9311 127.961 42.7272 126.361 43.8156 124.681C44.2021 124.013 44.6611 123.361 45.1942 122.721L45.3989 122.493C46.8958 120.564 48.8359 118.774 51.2184 117.126C53.4283 115.588 54.8377 114.366 55.4441 113.464L55.5081 113.4C55.9102 112.827 56.3685 112.042 56.8807 111.046C57.6374 109.618 58.3732 108.446 59.0916 107.527C60.3126 105.841 62.1103 104.594 64.4836 103.788C66.8607 103.04 69.2892 102.908 71.7683 103.393C73.1347 103.714 74.8941 103.179 77.0457 101.792C79.6001 100.241 81.9185 100.328 83.9989 102.057C84.2917 102.316 85.1111 103.721 86.4587 106.274C86.6481 106.667 86.6876 107.076 86.5767 107.499C86.4436 107.914 86.2 108.242 85.8464 108.485C85.4924 108.728 85.1109 108.8 84.7051 108.702C84.3215 108.613 84.0293 108.385 83.8306 108.018C82.7447 105.942 82.1123 104.797 81.9329 104.584C80.9266 103.733 79.7404 103.727 78.3705 104.573C75.5949 106.36 73.1462 107.023 71.0246 106.56C69.0074 106.163 67.0459 106.271 65.1406 106.879C63.4792 107.465 62.2072 108.33 61.3233 109.476C60.7615 110.192 60.1324 111.187 59.4338 112.463C58.772 113.78 58.2024 114.756 57.7248 115.388C56.8116 116.611 55.1345 118.09 52.6894 119.833C50.6154 121.221 48.9292 122.758 47.6303 124.443L47.5041 124.568L47.3969 124.745C47.0199 125.182 46.6323 125.717 46.2325 126.351C45.2387 127.921 44.5716 129.252 44.2318 130.344C44.1291 130.681 44.206 131.468 44.4642 132.703C44.6443 133.732 44.8785 134.622 45.1654 135.372C45.9155 137.435 45.9545 139.823 45.2818 142.533C44.5639 145.633 44.2277 147.703 44.2751 148.739C44.3473 152.027 45.3498 155.307 47.2832 158.581L48.7896 160.683Z" fill="black"/>
<path id="right-leaf" fill-rule="evenodd" clip-rule="evenodd" d="M97.3354 40.8491C93.058 46.5747 90.9085 52.4401 90.8852 58.4463C90.9185 64.5848 93.154 70.473 97.5884 76.1112C97.9601 76.5326 98.1093 77.0364 98.0349 77.6261C97.9906 78.1924 97.7438 78.6741 97.2965 79.0662L97.2543 79.099C96.8129 79.4427 96.3117 79.5667 95.7495 79.4727C95.1818 79.4267 94.701 79.1811 94.3081 78.7326C89.2711 72.3208 86.7346 65.5598 86.6954 58.4497C86.7304 51.5479 89.1601 44.8444 93.984 38.3369C97.1606 34.044 101.117 30.4985 105.854 27.6957C108.882 26.0034 113.179 24.2311 118.745 22.3802C124.455 20.3726 128.336 18.8361 130.39 17.7693C134.246 15.8305 137.301 13.3189 139.554 10.2333C140.11 9.5787 140.791 8.20519 141.601 6.1112C141.9 5.30103 142.504 4.8524 143.412 4.76755C144.266 4.72303 144.93 5.09255 145.407 5.8745C149.267 12.7144 151.909 18.0411 153.33 21.857C156.088 29.5557 155.48 36.1492 151.505 41.6399C150.441 43.1773 148.069 45.3133 144.387 48.0481C141.037 50.5241 138.793 52.5371 137.651 54.0919C136.771 55.3536 136.367 58.1083 136.437 62.3559C136.495 67.4994 135.272 71.822 132.766 75.3261C129.02 80.5948 123.955 84.2293 117.571 86.2278C112.672 87.7379 108.003 87.7796 103.568 86.3562C101.173 97.8995 112.825 134.908 117.876 142.018C118.22 142.459 118.355 142.976 118.281 143.565C118.215 144.105 117.959 144.547 117.517 144.891L117.435 144.956C116.972 145.272 116.445 145.394 115.856 145.32C115.294 145.226 114.845 144.932 114.506 144.442C108.151 135.598 97.1002 97.1809 99.371 83.1041C99.8009 69.0213 108.124 54.7335 124.337 40.2444C124.757 39.8735 125.266 39.6983 125.861 39.7228C126.428 39.7698 126.897 40.0025 127.268 40.4228C127.668 40.8205 127.856 41.3182 127.832 41.9136C127.808 42.5096 127.571 43.004 127.124 43.3966C112.398 56.5498 104.568 69.3887 103.635 81.9134C107.527 83.4942 111.767 83.5859 116.354 82.1862C121.776 80.4923 126.102 77.39 129.329 72.88C131.316 70.1354 132.288 66.6284 132.246 62.3592C132.161 57.2367 132.818 53.6651 134.214 51.6458C135.65 49.7295 138.193 47.4156 141.848 44.703C145.231 42.1565 147.305 40.3209 148.068 39.1934C151.222 34.8746 151.645 29.5783 149.333 23.3066C148.335 20.4913 146.469 16.5557 143.732 11.5032L142.945 12.7149C140.351 16.3312 136.807 19.2682 132.313 21.5263C129.947 22.7034 125.882 24.3168 120.117 26.3671C115.023 28.0288 110.951 29.6904 107.901 31.3569C103.789 33.7591 100.267 36.9244 97.3355 40.8482L97.3354 40.8491Z" fill="black"/>
</g>
</svg>
