<svg width="1920" height="1468" viewBox="0 0 1920 1468" fill="none" xmlns="http://www.w3.org/2000/svg">
<path d="M923.041 651.902L923.073 651.921L961.344 674.062L961.352 674.067C961.383 674.084 961.415 674.093 961.453 674.093C961.525 674.093 961.584 674.064 961.625 674.017L961.626 674.016C966.672 668.15 973.634 664.124 981.249 662.674L981.717 665.129L981.243 662.675C981.359 662.653 981.433 662.554 981.433 662.453V618.313V618.297L981.433 618.28C981.478 614.894 981.054 611.37 980.173 607.813L980.169 607.797C980.016 607.3 979.201 604.904 978.333 602.613L923.041 651.902ZM923.041 651.902L923.009 651.884M923.041 651.902L923.009 651.884M923.009 651.884C920.469 650.514 918.045 648.77 915.781 646.683L914.64 645.588C912.47 643.505 909.587 639.983 908.248 637.376L908.221 637.324L908.193 637.274C902.983 628.191 901.618 617.656 904.347 607.576L904.349 607.569L904.351 607.563C907.009 597.516 913.46 589.077 922.54 583.799C928.938 580.256 935.518 578.5 942.167 578.5C945.532 578.5 948.963 578.954 952.364 579.86L952.368 579.861C962.307 582.492 970.611 588.773 975.835 597.579L976.001 597.858M923.009 651.884L976.001 597.858M976.001 597.858L976.232 598.085M976.001 597.858L976.232 598.085M976.232 598.085C976.387 598.238 976.649 598.594 977.033 599.406M976.232 598.085L977.033 599.406M973.586 599.585L975.756 598.344C970.62 589.362 962.26 582.944 952.246 580.29C948.898 579.4 945.509 578.941 942.162 578.941C935.521 578.941 928.995 580.725 922.777 584.174L922.756 584.186L922.735 584.198C913.809 589.376 907.409 597.732 904.78 607.686L904.763 607.749C904.734 607.858 904.705 607.967 904.677 608.076L903.367 613.034L903.749 612.843C902.656 621.206 904.326 629.657 908.61 637.095L908.622 637.116C910.004 639.826 912.881 643.265 914.92 645.229C914.946 645.256 914.969 645.279 914.973 645.283L914.974 645.284C917.485 647.79 920.246 649.875 923.194 651.472C923.199 651.474 923.203 651.477 923.207 651.479L923.216 651.485L923.262 651.512L959.671 672.577L961.357 673.552L962.715 672.156C967.181 667.568 972.88 664.27 979.099 662.687L980.982 662.208V660.264V618.286C981.021 614.9 980.605 611.449 979.751 607.992L979.734 607.922L979.712 607.852C979.461 607.042 978.853 605.299 978.218 603.59C977.6 601.928 976.873 600.071 976.391 599.143L976.169 598.717L975.805 598.403C975.791 598.39 975.771 598.369 975.753 598.337L973.586 599.585ZM973.586 599.585C968.782 591.185 960.973 585.189 951.604 582.706L974.173 600.296C973.945 600.1 973.745 599.86 973.586 599.585ZM977.033 599.406C977.408 600.201 977.81 601.232 978.333 602.612L977.033 599.406Z" stroke="black" stroke-width="5"/>
<path d="M993.922 618.233L993.023 618.289L993.909 618.146C993.729 617.033 993.934 614.786 994.313 612.39C994.664 610.179 995.095 608.229 995.195 607.782C995.998 604.585 997.31 601.336 999.112 598.13C1004.22 589.217 1012.91 582.548 1022.95 579.855L1022.95 579.854C1026.3 578.955 1029.74 578.5 1033.19 578.5C1039.81 578.5 1046.38 580.203 1052.21 583.431L1052.21 583.434L1052.23 583.443L1052.23 583.445C1061.93 589.099 1068.21 597.189 1071.02 607.56C1073.69 617.7 1072.31 628.272 1067.1 637.357C1065.37 640.347 1063.27 643.037 1060.66 645.604L1060.65 645.612L1060.64 645.62C1058.1 648.158 1055.3 650.268 1052.34 651.889L1052.32 651.903L1052.29 651.917L1013.98 674.06C1013.98 674.06 1013.98 674.06 1013.98 674.06C1013.94 674.082 1013.9 674.092 1013.86 674.092C1013.79 674.092 1013.73 674.063 1013.69 674.019L1013.69 674.016C1008.58 668.062 1001.8 664.134 994.122 662.673C994.021 662.654 993.941 662.56 993.941 662.451V618.544H991.769L993.922 618.235L993.922 618.233ZM999.505 598.36C998.377 600.364 997.431 602.406 996.687 604.461L996.598 604.394L996.034 606.438C995.901 606.887 995.777 607.336 995.663 607.785L995.623 607.932C995.327 609.005 994.96 611.043 994.69 612.899C994.552 613.848 994.432 614.8 994.357 615.616C994.289 616.346 994.231 617.208 994.304 617.837L994.325 618.016L994.371 618.19C994.385 618.241 994.386 618.266 994.386 618.274V660.264V662.211L996.273 662.688C1002.53 664.268 1008.1 667.5 1012.59 672.15L1013.95 673.554L1015.64 672.577L1052.09 651.512L1052.16 651.477C1055.08 649.865 1057.83 647.78 1060.33 645.289C1062.91 642.756 1064.99 640.089 1066.71 637.141L1066.71 637.133L1066.72 637.125C1071.85 628.158 1073.23 617.686 1070.59 607.682L1070.58 607.674L1070.58 607.667C1067.81 597.42 1061.52 589.381 1052.03 583.842L1052 583.828L1051.98 583.813C1046.22 580.635 1039.73 578.948 1033.19 578.948C1029.79 578.948 1026.38 579.398 1023.07 580.288C1013.15 582.951 1004.56 589.526 999.514 598.345L999.509 598.353L999.505 598.36Z" stroke="black" stroke-width="5"/>
<path d="M916.76 730.187L917.635 731.72L916.733 730.203C913.833 731.929 910.614 733.317 907.19 734.29C903.75 735.201 900.24 735.655 896.702 735.655C886.246 735.655 876.414 731.601 868.988 724.229C861.571 716.757 857.5 706.921 857.5 696.508C857.5 686.061 861.572 676.209 868.978 668.746C876.451 661.327 886.289 657.26 896.701 657.26C900.321 657.26 903.84 657.735 907.162 658.666L907.164 658.666C910.394 659.57 912.44 660.586 914.996 661.862C914.997 661.863 914.998 661.863 914.999 661.864L915.136 661.933C915.662 662.196 916.226 662.48 916.834 662.776L916.856 662.786L955.054 684.847L955.056 684.848C955.143 684.899 955.189 685.009 955.152 685.116C953.883 688.757 953.239 692.591 953.239 696.508C953.239 700.36 953.88 704.165 955.153 707.806L955.154 707.809C955.187 707.905 955.147 708.02 955.053 708.075C955.053 708.075 955.053 708.075 955.053 708.075L916.76 730.187ZM869.31 723.908L869.315 723.913L869.32 723.918C876.047 730.605 884.817 734.538 894.208 735.132V735.211H896.708C900.208 735.211 903.689 734.762 907.052 733.864L907.074 733.858L907.095 733.852C910.417 732.901 913.607 731.537 916.519 729.802L952.936 708.78L954.619 707.808L954.092 705.937C953.228 702.868 952.79 699.707 952.79 696.508C952.79 693.246 953.229 690.052 954.092 686.982L954.619 685.112L952.936 684.14L916.71 663.22L916.628 663.172L916.542 663.131C915.972 662.857 915.445 662.594 914.917 662.329L914.798 662.27L914.796 662.269L914.762 662.252C912.252 660.999 910.254 660.002 907.046 659.104C903.743 658.178 900.266 657.713 896.707 657.713C886.408 657.713 876.669 661.752 869.307 669.064L869.3 669.07L869.294 669.076C861.993 676.429 857.957 686.182 857.957 696.513C857.957 706.812 861.996 716.549 869.31 723.908Z" stroke="black" stroke-width="5"/>
<path d="M1106.32 668.745L1106.34 668.764C1113.74 676.224 1117.81 686.072 1117.8 696.51V696.511C1117.8 706.931 1113.73 716.765 1106.33 724.22C1098.94 731.6 1089.12 735.658 1078.61 735.658H1078.6C1075.04 735.658 1071.53 735.2 1068.2 734.305C1065.41 733.541 1061.27 731.989 1058.56 730.181L1058.5 730.135L1058.42 730.093L1020.26 708.077L1020.26 708.076C1020.16 708.022 1020.12 707.91 1020.16 707.811L1020.16 707.808C1021.43 704.191 1022.07 700.39 1022.07 696.511C1022.07 692.569 1021.43 688.734 1020.16 685.118L1020.16 685.115C1020.12 685.016 1020.16 684.903 1020.26 684.85C1020.26 684.849 1020.26 684.849 1020.26 684.849L1058.55 662.789L1058.57 662.78L1058.59 662.77C1061.65 660.941 1064.88 659.555 1068.15 658.671L1068.15 658.67C1071.75 657.691 1075.4 657.196 1078.98 657.196C1089.3 657.196 1098.74 661.161 1106.32 668.745ZM1106.01 723.91L1107.93 721.991L1107.85 721.925C1113.99 714.844 1117.35 705.914 1117.36 696.51V696.509C1117.36 686.174 1113.32 676.42 1106 669.06L1106 669.054C1098.56 661.618 1089.2 657.642 1078.97 657.642C1075.42 657.642 1071.82 658.135 1068.27 659.1C1065.01 659.982 1061.83 661.356 1058.8 663.162L1022.38 684.143L1020.69 685.115L1021.22 686.989C1022.08 690.038 1022.52 693.227 1022.52 696.507C1022.52 699.73 1022.08 702.888 1021.22 705.934L1020.69 707.807L1022.38 708.78L1058.72 729.744C1058.74 729.756 1058.76 729.77 1058.78 729.784C1061.41 731.556 1065.57 733.121 1068.31 733.87L1068.32 733.872C1071.63 734.764 1075.09 735.212 1078.61 735.212C1088.98 735.212 1098.72 731.199 1106.01 723.91Z" stroke="black" stroke-width="5"/>
<path d="M1061.1 747.757L1060.66 747.315C1058.28 744.934 1056.34 743.664 1053.9 742.07C1053.38 741.73 1052.83 741.372 1052.24 740.986L1052.19 740.952M1052.19 740.952L1052.19 740.952L1052.19 740.952Z" stroke="black" stroke-width="5"/>
<path d="M987.658 673.868C1000.14 673.868 1010.29 684.025 1010.29 696.505C1010.29 708.932 1000.15 719.058 987.658 719.058C975.197 719.058 965.062 708.935 965.062 696.505C965.062 684.021 975.207 673.868 987.658 673.868ZM965.512 696.502C965.512 708.7 975.448 718.606 987.656 718.606C999.882 718.606 1009.85 708.701 1009.85 696.502C1009.85 684.267 999.887 674.317 987.656 674.317C975.439 674.317 965.512 684.273 965.512 696.502Z" stroke="black" stroke-width="5"/>
<path d="M961.62 718.957L961.62 718.957L981.192 730.298C981.193 730.298 981.193 730.298 981.194 730.298C981.305 730.32 981.381 730.416 981.381 730.525L981.379 774.392L981.379 774.582L981.408 774.77C981.486 775.283 981.49 776.154 981.397 777.316C981.307 778.435 981.142 779.673 980.957 780.846C980.61 783.038 980.208 784.896 980.157 785.128C979.315 788.354 977.985 791.599 976.194 794.784C970.931 803.893 962.478 810.387 952.354 813.118C949.244 813.951 946.012 814.372 942.745 814.372C924.957 814.372 908.805 802.137 904.34 785.401L904.338 785.395C901.612 775.277 902.988 764.721 908.216 755.651L908.22 755.644L908.223 755.638C909.865 752.75 912.026 749.944 914.65 747.316C917.11 744.863 919.929 742.744 923.035 741.021L923.054 741.01L923.072 741L961.337 718.908L961.341 718.905C961.428 718.855 961.545 718.87 961.62 718.957ZM980.582 780.325C980.596 780.23 980.61 780.135 980.623 780.041C980.76 779.089 980.88 778.132 980.957 777.313C981.025 776.582 981.085 775.712 981.01 775.079L980.989 774.897L980.941 774.72C980.937 774.704 980.934 774.688 980.932 774.674C980.93 774.659 980.93 774.652 980.93 774.652V732.704V730.764L979.05 730.282C972.858 728.696 967.171 725.4 962.708 720.816L961.351 719.422L959.667 720.395L923.275 741.401C920.186 743.119 917.402 745.208 914.97 747.636L914.967 747.638C912.41 750.199 910.264 752.966 908.611 755.867C903.446 764.836 902.082 775.289 904.776 785.285C909.22 801.938 925.192 813.925 942.747 813.925C945.97 813.925 949.164 813.506 952.239 812.681L952.241 812.681C962.249 809.987 970.619 803.552 975.8 794.577L975.807 794.566L975.813 794.554C977.566 791.441 978.894 788.22 979.731 785L980.991 780.157L980.582 780.325Z" stroke="black" stroke-width="5"/>
<line x1="-2.18557e-07" y1="934.5" x2="862" y2="934.5" stroke="black" stroke-width="5"/>
<path d="M602 511.609C602 511.609 697.921 499.612 750.701 582.091C789.712 643.054 786.958 722.555 786.958 722.555L786.958 937" stroke="black" stroke-width="5"/>
<line x1="1284.5" y1="1296" x2="1284.5" y2="514" stroke="black" stroke-width="5"/>
<line x1="1437.5" y1="796" x2="1437.5" y2="675" stroke="black" stroke-width="5"/>
<line x1="1920" y1="995.5" x2="1496" y2="995.5" stroke="black" stroke-width="5"/>
<line x1="859.5" y1="973" x2="859.5" y2="935" stroke="black" stroke-width="5"/>
<line x1="892.5" y1="1006" x2="892.5" y2="968" stroke="black" stroke-width="5"/>
<line x1="925.5" y1="1039" x2="925.5" y2="1001" stroke="black" stroke-width="5"/>
<line x1="958.5" y1="1072" x2="958.5" y2="1034" stroke="black" stroke-width="5"/>
<line x1="958.5" y1="1072" x2="958.5" y2="1034" stroke="black" stroke-width="5"/>
<line x1="991.5" y1="1105" x2="991.5" y2="1067" stroke="black" stroke-width="5"/>
<line x1="1024.5" y1="1138" x2="1024.5" y2="1100" stroke="black" stroke-width="5"/>
<line x1="1057.5" y1="1171" x2="1057.5" y2="1133" stroke="black" stroke-width="5"/>
<line x1="1090.5" y1="1204" x2="1090.5" y2="1166" stroke="black" stroke-width="5"/>
<line x1="1123.5" y1="1237" x2="1123.5" y2="1199" stroke="black" stroke-width="5"/>
<line x1="1156.5" y1="1270" x2="1156.5" y2="1232" stroke="black" stroke-width="5"/>
<line x1="1189.5" y1="1303" x2="1189.5" y2="1265" stroke="black" stroke-width="5"/>
<line x1="1222.5" y1="1336" x2="1222.5" y2="1298" stroke="black" stroke-width="5"/>
<line x1="1255.5" y1="1369" x2="1255.5" y2="1331" stroke="black" stroke-width="5"/>
<line x1="1288.5" y1="1402" x2="1288.5" y2="1364" stroke="black" stroke-width="5"/>
<line x1="1321.5" y1="1435" x2="1321.5" y2="1397" stroke="black" stroke-width="5"/>
<line x1="1354.5" y1="1468" x2="1354.5" y2="1430" stroke="black" stroke-width="5"/>
<line x1="895" y1="970.5" x2="857" y2="970.5" stroke="black" stroke-width="5"/>
<line x1="928" y1="1003.5" x2="890" y2="1003.5" stroke="black" stroke-width="5"/>
<line x1="375" y1="1347.5" x2="337" y2="1347.5" stroke="black" stroke-width="5"/>
<line x1="375" y1="1312.5" x2="337" y2="1312.5" stroke="black" stroke-width="5"/>
<line x1="375" y1="1277.5" x2="337" y2="1277.5" stroke="black" stroke-width="5"/>
<line x1="375" y1="1242.5" x2="337" y2="1242.5" stroke="black" stroke-width="5"/>
<line x1="375" y1="1207.5" x2="337" y2="1207.5" stroke="black" stroke-width="5"/>
<line x1="375" y1="1172.5" x2="337" y2="1172.5" stroke="black" stroke-width="5"/>
<line x1="375" y1="1137.5" x2="337" y2="1137.5" stroke="black" stroke-width="5"/>
<line x1="383" y1="1102.5" x2="337" y2="1102.5" stroke="black" stroke-width="5"/>
<line x1="394" y1="1067.5" x2="349" y2="1067.5" stroke="black" stroke-width="5"/>
<line x1="418" y1="1032.5" x2="367" y2="1032.5" stroke="black" stroke-width="5"/>
<line x1="455" y1="997.5" x2="395" y2="997.5" stroke="black" stroke-width="5"/>
<line x1="496.963" y1="971.5" x2="428.963" y2="970.5" stroke="black" stroke-width="5"/>
<line x1="545" y1="951.5" x2="465" y2="951.5" stroke="black" stroke-width="5"/>
<line x1="961" y1="1036.5" x2="923" y2="1036.5" stroke="black" stroke-width="5"/>
<line x1="994" y1="1069.5" x2="956" y2="1069.5" stroke="black" stroke-width="5"/>
<line x1="994" y1="1069.5" x2="956" y2="1069.5" stroke="black" stroke-width="5"/>
<line x1="1027" y1="1102.5" x2="989" y2="1102.5" stroke="black" stroke-width="5"/>
<line x1="1060" y1="1135.5" x2="1022" y2="1135.5" stroke="black" stroke-width="5"/>
<line x1="1093" y1="1168.5" x2="1055" y2="1168.5" stroke="black" stroke-width="5"/>
<line x1="1126" y1="1201.5" x2="1088" y2="1201.5" stroke="black" stroke-width="5"/>
<line x1="1159" y1="1234.5" x2="1121" y2="1234.5" stroke="black" stroke-width="5"/>
<line x1="1192" y1="1267.5" x2="1154" y2="1267.5" stroke="black" stroke-width="5"/>
<line x1="1225" y1="1300.5" x2="1187" y2="1300.5" stroke="black" stroke-width="5"/>
<line x1="1258" y1="1333.5" x2="1220" y2="1333.5" stroke="black" stroke-width="5"/>
<line x1="1291" y1="1366.5" x2="1253" y2="1366.5" stroke="black" stroke-width="5"/>
<line x1="1324" y1="1399.5" x2="1286" y2="1399.5" stroke="black" stroke-width="5"/>
<line x1="1357" y1="1432.5" x2="1319" y2="1432.5" stroke="black" stroke-width="5"/>
<line x1="1390" y1="1465.5" x2="1352" y2="1465.5" stroke="black" stroke-width="5"/>
<line x1="334.5" y1="1368" x2="334.5" y2="1137" stroke="black" stroke-width="5"/>
<line x1="377.5" y1="1368" x2="377.5" y2="1137" stroke="black" stroke-width="5"/>
<line x1="1178.5" y1="1270" x2="1178.5" y2="1039" stroke="black" stroke-width="5"/>
<line x1="1180" y1="1088.5" x2="1284" y2="1088.5" stroke="black" stroke-width="5"/>
<line x1="1180" y1="1140.5" x2="1284" y2="1140.5" stroke="black" stroke-width="5"/>
<line x1="1180" y1="1192.5" x2="1284" y2="1192.5" stroke="black" stroke-width="5"/>
<line x1="1180" y1="1244.5" x2="1284" y2="1244.5" stroke="black" stroke-width="5"/>
<line x1="1493.5" y1="1155" x2="1493.5" y2="935" stroke="black" stroke-width="5"/>
<line x1="1496" y1="1154.5" x2="1287" y2="1154.5" stroke="black" stroke-width="5"/>
<line x1="1080.5" y1="1166" x2="1080.5" y2="935" stroke="black" stroke-width="5"/>
<path fill-rule="evenodd" clip-rule="evenodd" d="M1491 939H1496C1496 823.572 1402.43 730 1287 730C1171.57 730 1078 823.572 1078 939H1083C1083 826.334 1174.33 735 1287 735C1399.67 735 1491 826.334 1491 939Z" fill="black"/>
<path fill-rule="evenodd" clip-rule="evenodd" d="M1282 1039.5H1287C1287 1008.85 1262.15 984 1231.5 984C1200.85 984 1176 1008.85 1176 1039.5H1181C1181 1011.61 1203.61 989 1231.5 989C1259.39 989 1282 1011.61 1282 1039.5Z" fill="black"/>
<path fill-rule="evenodd" clip-rule="evenodd" d="M1253 1339.71V1345.18C1272.97 1336.78 1287 1317.03 1287 1294H1282C1282 1314.2 1270.14 1331.63 1253 1339.71Z" fill="black"/>
<path fill-rule="evenodd" clip-rule="evenodd" d="M551 932C430.05 932 332 1025.57 332 1141H337C337 1028.55 432.588 937 551 937V932Z" fill="black"/>
<path fill-rule="evenodd" clip-rule="evenodd" d="M655 932C500.36 932 375 1025.57 375 1141H380C380 1085.22 410.277 1034.34 460.001 997.222C509.726 960.106 578.652 937 655 937V932Z" fill="black"/>
<path d="M1359.53 1269.44C1364.01 1272.92 1369.49 1274.56 1373.03 1275L1420.03 1268.24M1359.53 1269.44C1355.58 1266.38 1352.41 1261.88 1352.03 1255.5C1351.23 1241.9 1366.36 1237.5 1374.03 1237L1508.53 1256L1420.03 1268.24M1359.53 1269.44C1361.2 1266.8 1367.43 1261.8 1379.03 1263C1390.63 1264.2 1411.2 1266.99 1420.03 1268.24" stroke="black" stroke-width="5"/>
<path d="M1352.03 1252.5V1280.5C1354.03 1286.5 1361.63 1298.2 1376.03 1297C1390.43 1295.8 1472.03 1284.5 1511.03 1279V1253.5" stroke="black" stroke-width="5"/>
<path d="M1512.53 1256C1519.03 1255.5 1542.51 1269.05 1547.53 1271C1565.53 1278 1577.86 1278 1584.03 1278C1589.53 1278 1601.31 1276.77 1629.53 1264.5C1664.03 1249.5 1684.79 1259.2 1706.03 1269C1725.53 1278 1746.19 1280.6 1765.03 1269C1810.53 1241 1830.53 1256.54 1837.03 1259C1846.03 1263.5 1884.13 1289.2 1918.53 1270" stroke="black" stroke-width="5"/>
<path d="M1511.53 1279.01C1518.03 1278.51 1541.51 1292.06 1546.53 1294.01C1564.53 1301.01 1576.86 1301.01 1583.03 1301.01C1588.53 1301.01 1600.31 1299.78 1628.53 1287.51C1663.03 1272.51 1683.79 1282.21 1705.03 1292.01C1724.53 1301.01 1745.19 1303.61 1764.03 1292.01C1809.53 1264.01 1829.53 1279.55 1836.03 1282.01C1845.03 1286.51 1883.13 1312.21 1917.53 1293.01" stroke="black" stroke-width="5"/>
<mask id="path-79-inside-1_123_5" fill="white">
<path d="M1790.08 994.677C1791.01 997.065 1794.64 995.646 1793.71 993.258C1789.13 981.538 1789.85 969.809 1790.56 958.227C1791.08 949.768 1791.59 941.383 1790.11 932.967C1803.98 944.974 1813.13 956.185 1830.26 964.677C1832.55 965.809 1834.28 962.319 1831.98 961.187C1813.8 952.169 1804.69 939.566 1789.72 927.626C1774.57 915.538 1759.58 909.475 1742.06 899.644C1736.28 896.407 1730.34 893.009 1724.89 889.309C1720.87 886.578 1718.41 882.873 1717.82 879.404C1717.53 877.757 1717.68 876.181 1718.29 874.825C1721.54 867.621 1733.83 870.172 1740.54 872.034C1755.03 876.056 1767.28 880.205 1779.13 885.598C1791.45 891.207 1803.33 898.165 1816.85 907.724C1823.29 912.279 1840.26 924.34 1846.57 926.921C1848.94 927.885 1850.4 924.286 1848.04 923.322C1842.16 920.918 1825.21 908.876 1819.09 904.55C1805.36 894.833 1793.27 887.759 1780.75 882.058C1769.79 877.068 1758.51 873.131 1745.51 869.393C1753.44 867.266 1761.63 865.872 1769.65 863.991C1790.5 859.096 1800.03 863.733 1822.74 874.791C1832.95 879.763 1845.78 886.006 1863.53 893.305C1865.9 894.276 1867.38 890.68 1865.01 889.705C1847.52 882.512 1834.67 876.261 1824.45 871.281C1800.86 859.795 1790.97 854.978 1768.77 860.193C1758.59 862.58 1748.38 864.244 1738.39 867.424C1730.94 865.589 1719 864.576 1714.9 872.88C1709.02 875.156 1700.03 875.722 1696 869.784C1689.73 860.528 1706.44 852.861 1712.66 849.945C1722.28 845.433 1732.98 841.548 1742.92 838.282C1753.71 834.737 1763.51 832.025 1768.86 830.925C1772.74 830.13 1776.75 829.89 1780.7 829.931C1809.7 830.242 1851.83 846.386 1876.41 859.907C1878.65 861.14 1880.53 857.726 1878.28 856.493C1869.66 851.75 1857.94 846.281 1845.06 841.295C1836.5 832.697 1828.29 820.111 1823.89 808.807C1824.51 808.755 1825.13 808.695 1825.73 808.627C1828.28 808.347 1827.85 804.475 1825.3 804.756C1817.63 805.624 1807.55 804.99 1797.95 804.386C1788.79 803.808 1780.06 803.258 1773.87 804.067C1769.75 804.603 1768.13 805.6 1764.47 807.154C1757.79 809.994 1750.71 812.583 1744.51 813.555C1737.61 814.636 1731.83 813.697 1729.21 808.663C1724.09 798.859 1738.07 792.074 1744.77 787.789C1767.88 773.006 1774.63 773.128 1807.63 773.724C1828.43 774.1 1838.89 771.402 1853.43 788.2C1867.44 804.381 1879.9 821.557 1892.45 838.864C1905.01 856.174 1916.23 871.633 1915.02 892.014C1914.37 902.937 1910.87 919.406 1906.15 936.781C1900.7 956.857 1893.65 978.063 1887.49 993.337C1886.54 995.714 1890.15 997.162 1891.1 994.785C1897.33 979.343 1904.44 957.976 1909.92 937.802C1914.69 920.217 1918.23 903.476 1918.9 892.243C1920.19 870.471 1908.59 854.481 1895.61 836.577C1882.99 819.183 1870.45 801.917 1856.37 785.655C1840.87 767.757 1829.81 770.237 1807.69 769.837C1777.73 769.295 1768.79 769.135 1750.56 779.682L1750.39 773.11C1750.19 764.852 1733.09 761.212 1727.11 759.922C1713.2 756.921 1693.69 754.762 1671.78 753.959C1669.23 753.869 1669.09 757.757 1671.65 757.847C1693.29 758.642 1712.56 760.774 1726.29 763.733C1738.75 766.423 1746.33 769.472 1746.33 772.424C1746.33 775.998 1736.39 779.562 1720.32 782.437C1681.79 789.331 1626.2 789.331 1587.67 782.437C1574.02 779.995 1564.79 777.055 1562.32 774.035C1561.59 773.131 1561.46 772.211 1561.93 771.136C1566.97 759.472 1639.56 757.37 1651.09 757.58C1653.65 757.621 1653.71 753.733 1651.15 753.692C1637.06 753.434 1562.22 755.176 1557.95 770.986C1557.75 771.726 1557.65 773.714 1557.59 774.413C1554.39 815.154 1564.81 838.965 1573.24 858.238C1577.2 867.296 1580.71 875.326 1582.06 883.561C1582.74 887.677 1582.19 890.776 1584.74 894.5C1595.76 910.56 1642.3 912.67 1660.28 912.287C1683.67 911.789 1706.2 907.827 1717.46 900.245C1723.04 902.377 1729.18 900.836 1734.92 900.052C1736.64 901.048 1738.4 902.047 1740.15 903.03C1755.45 911.614 1771.28 917.917 1785.22 928.908C1787.87 938.396 1787.28 948.141 1786.67 957.991C1785.94 969.998 1785.2 982.154 1790.09 994.669L1790.08 994.677ZM1659.49 698.964C1659.64 696.408 1655.75 696.179 1655.6 698.736C1654.51 716.182 1672.39 723.151 1672.91 743.024C1672.97 745.58 1676.86 745.49 1676.8 742.931C1676.26 722.188 1658.53 714.246 1659.49 698.962V698.964ZM1634.92 698.747C1634.94 696.19 1631.05 696.16 1631.03 698.717C1630.8 722.591 1647.2 726.637 1648.94 743.176C1649.2 745.722 1653.07 745.327 1652.81 742.779C1650.95 725.112 1634.7 721.031 1634.92 698.746L1634.92 698.747ZM1655.93 673.054C1657.37 670.941 1654.15 668.744 1652.71 670.86C1646.25 680.35 1643.24 689.431 1643.23 698.028C1643.22 719.971 1661.22 725.621 1661.29 745.999C1661.31 753.938 1658.28 761.344 1653 767.071C1651.27 768.955 1654.14 771.594 1655.87 769.71C1661.8 763.271 1665.21 754.942 1665.18 745.999C1665.11 724.254 1647.11 718.569 1647.13 698.027C1647.13 690.213 1649.92 681.871 1655.93 673.053L1655.93 673.054ZM1766.6 810.477C1770.23 813.847 1771.33 822.745 1768.93 826.954C1760.64 828.489 1751.43 831.43 1743.41 834.027C1745.12 828.377 1746.58 822.747 1747.64 816.935C1753.76 815.644 1760.38 813.145 1766.6 810.477L1766.6 810.477ZM1773.33 826.344C1774.9 820.896 1773.98 813.317 1770.38 808.844C1771.58 808.351 1773.17 808.021 1775.04 807.817C1778.88 811.988 1779.51 820.809 1777.89 826.072C1776.33 826.112 1774.81 826.202 1773.33 826.344V826.344ZM1781.93 826.074C1783.41 820.183 1782.63 812.862 1779.58 807.559C1784.74 807.463 1791.11 807.863 1797.7 808.28C1805.19 808.751 1812.97 809.241 1819.8 809.037C1823.51 819.165 1830.2 830.019 1837.13 838.356C1820.08 832.265 1799.98 826.54 1781.93 826.08L1781.93 826.074ZM1713.59 898.079C1702.46 904.548 1681.78 907.948 1660.2 908.408C1643.98 908.754 1597.86 906.75 1587.96 892.315C1586.11 889.617 1586.45 886.391 1585.95 883.243C1584.57 874.447 1580.92 866.107 1576.81 856.692C1568.76 838.307 1558.88 815.707 1561.25 777.802C1565.88 781.208 1574.88 784.107 1586.98 786.272C1626.04 793.257 1681.95 793.257 1721.01 786.272C1733.03 784.123 1741.99 781.246 1746.65 777.872C1746.68 779.247 1746.69 780.622 1746.7 781.994C1745.41 782.787 1744.08 783.625 1742.68 784.518C1733.79 790.208 1718.98 797.466 1725.76 810.469C1729.13 816.927 1735.72 818.547 1743.55 817.619C1742.37 823.736 1740.73 829.59 1738.87 835.53C1729.49 838.697 1719.98 842.222 1711.01 846.429C1702.15 850.584 1684.51 859.753 1692.78 871.97C1696.6 877.594 1703.98 879.128 1710.35 878.134C1706.17 884.455 1707.59 893.385 1713.59 898.082L1713.59 898.079ZM1713.93 879.802C1714.73 885.04 1718.42 889.611 1722.71 892.522C1724.7 893.875 1727.02 895.348 1729.53 896.867C1724.79 897.512 1720.26 898.275 1716.09 895.087C1711.44 891.542 1710.45 884.472 1713.93 879.799L1713.93 879.802ZM1611.17 889.837C1609.69 889.445 1609.09 891.705 1610.58 892.097C1628.97 896.989 1650.75 897.822 1669.68 896.578C1671.21 896.483 1671.07 894.15 1669.53 894.245C1650.87 895.473 1629.31 894.661 1611.18 889.837H1611.17Z"/>
</mask>
<path d="M1790.08 994.677C1791.01 997.065 1794.64 995.646 1793.71 993.258C1789.13 981.538 1789.85 969.809 1790.56 958.227C1791.08 949.768 1791.59 941.383 1790.11 932.967C1803.98 944.974 1813.13 956.185 1830.26 964.677C1832.55 965.809 1834.28 962.319 1831.98 961.187C1813.8 952.169 1804.69 939.566 1789.72 927.626C1774.57 915.538 1759.58 909.475 1742.06 899.644C1736.28 896.407 1730.34 893.009 1724.89 889.309C1720.87 886.578 1718.41 882.873 1717.82 879.404C1717.53 877.757 1717.68 876.181 1718.29 874.825C1721.54 867.621 1733.83 870.172 1740.54 872.034C1755.03 876.056 1767.28 880.205 1779.13 885.598C1791.45 891.207 1803.33 898.165 1816.85 907.724C1823.29 912.279 1840.26 924.34 1846.57 926.921C1848.94 927.885 1850.4 924.286 1848.04 923.322C1842.16 920.918 1825.21 908.876 1819.09 904.55C1805.36 894.833 1793.27 887.759 1780.75 882.058C1769.79 877.068 1758.51 873.131 1745.51 869.393C1753.44 867.266 1761.63 865.872 1769.65 863.991C1790.5 859.096 1800.03 863.733 1822.74 874.791C1832.95 879.763 1845.78 886.006 1863.53 893.305C1865.9 894.276 1867.38 890.68 1865.01 889.705C1847.52 882.512 1834.67 876.261 1824.45 871.281C1800.86 859.795 1790.97 854.978 1768.77 860.193C1758.59 862.58 1748.38 864.244 1738.39 867.424C1730.94 865.589 1719 864.576 1714.9 872.88C1709.02 875.156 1700.03 875.722 1696 869.784C1689.73 860.528 1706.44 852.861 1712.66 849.945C1722.28 845.433 1732.98 841.548 1742.92 838.282C1753.71 834.737 1763.51 832.025 1768.86 830.925C1772.74 830.13 1776.75 829.89 1780.7 829.931C1809.7 830.242 1851.83 846.386 1876.41 859.907C1878.65 861.14 1880.53 857.726 1878.28 856.493C1869.66 851.75 1857.94 846.281 1845.06 841.295C1836.5 832.697 1828.29 820.111 1823.89 808.807C1824.51 808.755 1825.13 808.695 1825.73 808.627C1828.28 808.347 1827.85 804.475 1825.3 804.756C1817.63 805.624 1807.55 804.99 1797.95 804.386C1788.79 803.808 1780.06 803.258 1773.87 804.067C1769.75 804.603 1768.13 805.6 1764.47 807.154C1757.79 809.994 1750.71 812.583 1744.51 813.555C1737.61 814.636 1731.83 813.697 1729.21 808.663C1724.09 798.859 1738.07 792.074 1744.77 787.789C1767.88 773.006 1774.63 773.128 1807.63 773.724C1828.43 774.1 1838.89 771.402 1853.43 788.2C1867.44 804.381 1879.9 821.557 1892.45 838.864C1905.01 856.174 1916.23 871.633 1915.02 892.014C1914.37 902.937 1910.87 919.406 1906.15 936.781C1900.7 956.857 1893.65 978.063 1887.49 993.337C1886.54 995.714 1890.15 997.162 1891.1 994.785C1897.33 979.343 1904.44 957.976 1909.92 937.802C1914.69 920.217 1918.23 903.476 1918.9 892.243C1920.19 870.471 1908.59 854.481 1895.61 836.577C1882.99 819.183 1870.45 801.917 1856.37 785.655C1840.87 767.757 1829.81 770.237 1807.69 769.837C1777.73 769.295 1768.79 769.135 1750.56 779.682L1750.39 773.11C1750.19 764.852 1733.09 761.212 1727.11 759.922C1713.2 756.921 1693.69 754.762 1671.78 753.959C1669.23 753.869 1669.09 757.757 1671.65 757.847C1693.29 758.642 1712.56 760.774 1726.29 763.733C1738.75 766.423 1746.33 769.472 1746.33 772.424C1746.33 775.998 1736.39 779.562 1720.32 782.437C1681.79 789.331 1626.2 789.331 1587.67 782.437C1574.02 779.995 1564.79 777.055 1562.32 774.035C1561.59 773.131 1561.46 772.211 1561.93 771.136C1566.97 759.472 1639.56 757.37 1651.09 757.58C1653.65 757.621 1653.71 753.733 1651.15 753.692C1637.06 753.434 1562.22 755.176 1557.95 770.986C1557.75 771.726 1557.65 773.714 1557.59 774.413C1554.39 815.154 1564.81 838.965 1573.24 858.238C1577.2 867.296 1580.71 875.326 1582.06 883.561C1582.74 887.677 1582.19 890.776 1584.74 894.5C1595.76 910.56 1642.3 912.67 1660.28 912.287C1683.67 911.789 1706.2 907.827 1717.46 900.245C1723.04 902.377 1729.18 900.836 1734.92 900.052C1736.64 901.048 1738.4 902.047 1740.15 903.03C1755.45 911.614 1771.28 917.917 1785.22 928.908C1787.87 938.396 1787.28 948.141 1786.67 957.991C1785.94 969.998 1785.2 982.154 1790.09 994.669L1790.08 994.677ZM1659.49 698.964C1659.64 696.408 1655.75 696.179 1655.6 698.736C1654.51 716.182 1672.39 723.151 1672.91 743.024C1672.97 745.58 1676.86 745.49 1676.8 742.931C1676.26 722.188 1658.53 714.246 1659.49 698.962V698.964ZM1634.92 698.747C1634.94 696.19 1631.05 696.16 1631.03 698.717C1630.8 722.591 1647.2 726.637 1648.94 743.176C1649.2 745.722 1653.07 745.327 1652.81 742.779C1650.95 725.112 1634.7 721.031 1634.92 698.746L1634.92 698.747ZM1655.93 673.054C1657.37 670.941 1654.15 668.744 1652.71 670.86C1646.25 680.35 1643.24 689.431 1643.23 698.028C1643.22 719.971 1661.22 725.621 1661.29 745.999C1661.31 753.938 1658.28 761.344 1653 767.071C1651.27 768.955 1654.14 771.594 1655.87 769.71C1661.8 763.271 1665.21 754.942 1665.18 745.999C1665.11 724.254 1647.11 718.569 1647.13 698.027C1647.13 690.213 1649.92 681.871 1655.93 673.053L1655.93 673.054ZM1766.6 810.477C1770.23 813.847 1771.33 822.745 1768.93 826.954C1760.64 828.489 1751.43 831.43 1743.41 834.027C1745.12 828.377 1746.58 822.747 1747.64 816.935C1753.76 815.644 1760.38 813.145 1766.6 810.477L1766.6 810.477ZM1773.33 826.344C1774.9 820.896 1773.98 813.317 1770.38 808.844C1771.58 808.351 1773.17 808.021 1775.04 807.817C1778.88 811.988 1779.51 820.809 1777.89 826.072C1776.33 826.112 1774.81 826.202 1773.33 826.344V826.344ZM1781.93 826.074C1783.41 820.183 1782.63 812.862 1779.58 807.559C1784.74 807.463 1791.11 807.863 1797.7 808.28C1805.19 808.751 1812.97 809.241 1819.8 809.037C1823.51 819.165 1830.2 830.019 1837.13 838.356C1820.08 832.265 1799.98 826.54 1781.93 826.08L1781.93 826.074ZM1713.59 898.079C1702.46 904.548 1681.78 907.948 1660.2 908.408C1643.98 908.754 1597.86 906.75 1587.96 892.315C1586.11 889.617 1586.45 886.391 1585.95 883.243C1584.57 874.447 1580.92 866.107 1576.81 856.692C1568.76 838.307 1558.88 815.707 1561.25 777.802C1565.88 781.208 1574.88 784.107 1586.98 786.272C1626.04 793.257 1681.95 793.257 1721.01 786.272C1733.03 784.123 1741.99 781.246 1746.65 777.872C1746.68 779.247 1746.69 780.622 1746.7 781.994C1745.41 782.787 1744.08 783.625 1742.68 784.518C1733.79 790.208 1718.98 797.466 1725.76 810.469C1729.13 816.927 1735.72 818.547 1743.55 817.619C1742.37 823.736 1740.73 829.59 1738.87 835.53C1729.49 838.697 1719.98 842.222 1711.01 846.429C1702.15 850.584 1684.51 859.753 1692.78 871.97C1696.6 877.594 1703.98 879.128 1710.35 878.134C1706.17 884.455 1707.59 893.385 1713.59 898.082L1713.59 898.079ZM1713.93 879.802C1714.73 885.04 1718.42 889.611 1722.71 892.522C1724.7 893.875 1727.02 895.348 1729.53 896.867C1724.79 897.512 1720.26 898.275 1716.09 895.087C1711.44 891.542 1710.45 884.472 1713.93 879.799L1713.93 879.802ZM1611.17 889.837C1609.69 889.445 1609.09 891.705 1610.58 892.097C1628.97 896.989 1650.75 897.822 1669.68 896.578C1671.21 896.483 1671.07 894.15 1669.53 894.245C1650.87 895.473 1629.31 894.661 1611.18 889.837H1611.17Z" stroke="black" stroke-width="10" mask="url(#path-79-inside-1_123_5)"/>
<path fill-rule="evenodd" clip-rule="evenodd" d="M1635 675H1440V680H1635V675ZM1672 680H1680H1920V675H1680H1672V680Z" fill="black"/>
<line x1="1440" y1="754.5" x2="1541" y2="754.5" stroke="black" stroke-width="5"/>
<line x1="1819" y1="737.5" x2="1920" y2="737.5" stroke="black" stroke-width="5"/>
<line x1="1819" y1="737.5" x2="1920" y2="737.5" stroke="black" stroke-width="5"/>
<line x1="1843" y1="767.5" x2="1920" y2="767.5" stroke="black" stroke-width="5"/>
<line x1="1819" y1="707.5" x2="1920" y2="707.5" stroke="black" stroke-width="5"/>
<line x1="1440" y1="784.5" x2="1541" y2="784.5" stroke="black" stroke-width="5"/>
<line x1="1452" y1="814.5" x2="1541" y2="814.5" stroke="black" stroke-width="5"/>
<line x1="1470" y1="844.5" x2="1541" y2="844.5" stroke="black" stroke-width="5"/>
<line x1="1898" y1="827.5" x2="1920" y2="827.5" stroke="black" stroke-width="5"/>
<line x1="1915" y1="857.5" x2="1920" y2="857.5" stroke="black" stroke-width="5"/>
<mask id="path-91-inside-2_123_5" fill="white">
<path d="M1822.45 1182.96H1818V1161.52C1817.99 1159.39 1817.14 1157.34 1815.63 1155.83C1814.12 1154.31 1812.07 1153.46 1809.93 1153.46H1660.89C1658.75 1153.46 1656.7 1154.31 1655.19 1155.83C1653.68 1157.34 1652.83 1159.39 1652.82 1161.52V1182.98H1648.37V1161.52C1648.37 1158.2 1649.69 1155.02 1652.04 1152.67C1654.39 1150.33 1657.57 1149.01 1660.89 1149H1809.93C1813.25 1149.01 1816.43 1150.33 1818.78 1152.67C1821.13 1155.02 1822.45 1158.2 1822.45 1161.52V1182.98L1822.45 1182.96Z"/>
</mask>
<path d="M1822.45 1182.96L1827.45 1182.91L1827.4 1177.96H1822.45V1182.96ZM1818 1182.96H1813V1187.96H1818V1182.96ZM1818 1161.52H1823V1161.52L1823 1161.51L1818 1161.52ZM1815.63 1155.83L1819.16 1152.29L1819.16 1152.29L1815.63 1155.83ZM1809.93 1153.46L1809.94 1148.46L1809.94 1148.46H1809.93V1153.46ZM1660.89 1153.46V1148.46H1660.88L1660.88 1148.46L1660.89 1153.46ZM1655.19 1155.83L1651.66 1152.29L1651.66 1152.29L1655.19 1155.83ZM1652.82 1161.52L1647.82 1161.51L1647.82 1161.52V1161.52H1652.82ZM1652.82 1182.98V1187.98H1657.82V1182.98H1652.82ZM1648.37 1182.98H1643.37V1187.98H1648.37V1182.98ZM1648.37 1161.52L1643.37 1161.52V1161.52H1648.37ZM1652.04 1152.67L1655.58 1156.21L1655.58 1156.21L1652.04 1152.67ZM1660.89 1149V1144L1660.88 1144L1660.89 1149ZM1809.93 1149L1809.94 1144H1809.93V1149ZM1818.78 1152.67L1815.24 1156.21L1815.24 1156.21L1818.78 1152.67ZM1822.45 1161.52H1827.45L1827.45 1161.52L1822.45 1161.52ZM1822.45 1182.98L1817.45 1183.04L1827.45 1182.98H1822.45ZM1822.45 1177.96H1818V1187.96H1822.45V1177.96ZM1823 1182.96V1161.52H1813V1182.96H1823ZM1823 1161.51C1822.99 1158.05 1821.61 1154.74 1819.16 1152.29L1812.09 1159.36C1812.67 1159.94 1812.99 1160.72 1813 1161.54L1823 1161.51ZM1819.16 1152.29C1816.72 1149.84 1813.4 1148.47 1809.94 1148.46L1809.92 1158.46C1810.73 1158.46 1811.51 1158.78 1812.09 1159.36L1819.16 1152.29ZM1809.93 1148.46H1660.89V1158.46H1809.93V1148.46ZM1660.88 1148.46C1657.42 1148.47 1654.1 1149.84 1651.66 1152.29L1658.73 1159.36C1659.31 1158.78 1660.09 1158.46 1660.91 1158.46L1660.88 1148.46ZM1651.66 1152.29C1649.21 1154.74 1647.83 1158.05 1647.82 1161.51L1657.82 1161.54C1657.83 1160.72 1658.15 1159.94 1658.73 1159.36L1651.66 1152.29ZM1647.82 1161.52V1182.98H1657.82V1161.52H1647.82ZM1652.82 1177.98H1648.37V1187.98H1652.82V1177.98ZM1653.37 1182.98V1161.52H1643.37V1182.98H1653.37ZM1653.37 1161.53C1653.37 1159.53 1654.17 1157.62 1655.58 1156.21L1648.51 1149.14C1645.22 1152.42 1643.37 1156.87 1643.37 1161.52L1653.37 1161.53ZM1655.58 1156.21C1656.99 1154.8 1658.9 1154 1660.9 1154L1660.88 1144C1656.24 1144.01 1651.79 1145.86 1648.51 1149.14L1655.58 1156.21ZM1660.89 1154H1809.93V1144H1660.89V1154ZM1809.92 1154C1811.92 1154 1813.83 1154.8 1815.24 1156.21L1822.31 1149.14C1819.03 1145.86 1814.58 1144.01 1809.94 1144L1809.92 1154ZM1815.24 1156.21C1816.66 1157.62 1817.45 1159.54 1817.45 1161.53L1827.45 1161.52C1827.45 1156.87 1825.6 1152.42 1822.31 1149.14L1815.24 1156.21ZM1817.45 1161.52V1182.98H1827.45V1161.52H1817.45ZM1827.45 1182.93L1827.45 1182.91L1817.45 1183.01L1817.45 1183.04L1827.45 1182.93Z" fill="black" mask="url(#path-91-inside-2_123_5)"/>
<mask id="path-93-inside-3_123_5" fill="white">
<path d="M1809.93 1238.32H1660.89C1657.58 1238.31 1654.39 1236.99 1652.05 1234.64C1649.7 1232.3 1648.38 1229.11 1648.37 1225.8V1203.87H1635V1188.78H1663.7V1193.24L1639.37 1193.24V1199.41H1652.74L1652.74 1225.77C1652.74 1227.91 1653.6 1229.96 1655.11 1231.47C1656.62 1232.98 1658.67 1233.83 1660.81 1233.84H1809.93C1812.07 1233.83 1814.12 1232.98 1815.63 1231.47C1817.14 1229.96 1817.99 1227.91 1818 1225.77V1199.41H1831.37V1193.24H1807.12V1188.78L1835.91 1188.78V1203.87H1822.54V1225.77L1822.54 1225.77C1822.54 1229.11 1821.21 1232.31 1818.85 1234.67C1816.48 1237.02 1813.27 1238.34 1809.93 1238.32L1809.93 1238.32Z"/>
</mask>
<path d="M1809.93 1238.32L1810.78 1243.25L1809.93 1233.32V1238.32ZM1660.89 1238.32L1660.89 1243.32H1660.89V1238.32ZM1652.05 1234.64L1655.58 1231.11L1655.58 1231.11L1652.05 1234.64ZM1648.37 1225.8H1643.37L1643.37 1225.8L1648.37 1225.8ZM1648.37 1203.87H1653.37V1198.87H1648.37V1203.87ZM1635 1203.87H1630V1208.87H1635V1203.87ZM1635 1188.78V1183.78H1630V1188.78H1635ZM1663.7 1188.78H1668.7V1183.78H1663.7V1188.78ZM1663.7 1193.24L1663.7 1198.24L1668.7 1198.24V1193.24H1663.7ZM1639.37 1193.24L1639.37 1188.24L1634.37 1188.24V1193.24H1639.37ZM1639.37 1199.41H1634.37V1204.41H1639.37V1199.41ZM1652.74 1199.41L1657.74 1199.41L1657.74 1194.41H1652.74V1199.41ZM1652.74 1225.77L1647.74 1225.77L1647.74 1225.78L1647.74 1225.79L1652.74 1225.77ZM1655.11 1231.47L1658.64 1227.94L1658.64 1227.94L1655.11 1231.47ZM1660.81 1233.84L1660.79 1238.84L1660.8 1238.84H1660.81V1233.84ZM1809.93 1233.84V1238.84H1809.94L1809.95 1238.84L1809.93 1233.84ZM1815.63 1231.47L1819.17 1235.01L1819.17 1235L1815.63 1231.47ZM1818 1225.77L1823 1225.79L1823 1225.78V1225.77H1818ZM1818 1199.41V1194.41H1813V1199.41H1818ZM1831.37 1199.41V1204.41H1836.37V1199.41H1831.37ZM1831.37 1193.24H1836.37V1188.24H1831.37V1193.24ZM1807.12 1193.24H1802.12V1198.24H1807.12V1193.24ZM1807.12 1188.78L1807.12 1183.78L1802.12 1183.78V1188.78H1807.12ZM1835.91 1188.78H1840.91V1183.78L1835.91 1183.78L1835.91 1188.78ZM1835.91 1203.87V1208.87H1840.91V1203.87H1835.91ZM1822.54 1203.87V1198.87H1817.54V1203.87H1822.54ZM1822.54 1225.77H1817.54V1227.84L1819.01 1229.31L1822.54 1225.77ZM1822.54 1225.77H1827.54V1223.7L1826.08 1222.24L1822.54 1225.77ZM1809.93 1238.32L1809.09 1233.39L1809.9 1243.32L1809.93 1238.32ZM1809.93 1233.32H1660.89V1243.32H1809.93V1233.32ZM1660.9 1233.32C1658.91 1233.32 1656.99 1232.52 1655.58 1231.11L1648.51 1238.18C1651.79 1241.46 1656.24 1243.31 1660.89 1243.32L1660.9 1233.32ZM1655.58 1231.11C1654.17 1229.7 1653.37 1227.78 1653.37 1225.79L1643.37 1225.8C1643.38 1230.45 1645.23 1234.9 1648.51 1238.18L1655.58 1231.11ZM1653.37 1225.8V1203.87H1643.37V1225.8H1653.37ZM1648.37 1198.87H1635V1208.87H1648.37V1198.87ZM1640 1203.87V1188.78H1630V1203.87H1640ZM1635 1193.78H1663.7V1183.78H1635V1193.78ZM1658.7 1188.78V1193.24H1668.7V1188.78H1658.7ZM1663.7 1188.24L1639.37 1188.24L1639.37 1198.24L1663.7 1198.24L1663.7 1188.24ZM1634.37 1193.24V1199.41H1644.37V1193.24H1634.37ZM1639.37 1204.41H1652.74V1194.41H1639.37V1204.41ZM1647.74 1199.41L1647.74 1225.77L1657.74 1225.77L1657.74 1199.41L1647.74 1199.41ZM1647.74 1225.79C1647.75 1229.25 1649.13 1232.56 1651.57 1235.01L1658.64 1227.94C1658.07 1227.36 1657.74 1226.57 1657.74 1225.76L1647.74 1225.79ZM1651.57 1235.01C1654.02 1237.45 1657.33 1238.83 1660.79 1238.84L1660.82 1228.84C1660 1228.84 1659.22 1228.51 1658.64 1227.94L1651.57 1235.01ZM1660.81 1238.84H1809.93V1228.84H1660.81V1238.84ZM1809.95 1238.84C1813.4 1238.83 1816.72 1237.45 1819.17 1235.01L1812.09 1227.94C1811.52 1228.51 1810.73 1228.84 1809.92 1228.84L1809.95 1238.84ZM1819.17 1235C1821.61 1232.56 1822.99 1229.25 1823 1225.79L1813 1225.76C1813 1226.57 1812.67 1227.36 1812.09 1227.94L1819.17 1235ZM1823 1225.77V1199.41H1813V1225.77H1823ZM1818 1204.41H1831.37V1194.41H1818V1204.41ZM1836.37 1199.41V1193.24H1826.37V1199.41H1836.37ZM1831.37 1188.24H1807.12V1198.24H1831.37V1188.24ZM1812.12 1193.24V1188.78H1802.12V1193.24H1812.12ZM1807.12 1193.78L1835.92 1193.78L1835.91 1183.78L1807.12 1183.78L1807.12 1193.78ZM1830.91 1188.78V1203.87H1840.91V1188.78H1830.91ZM1835.91 1198.87H1822.54V1208.87H1835.91V1198.87ZM1817.54 1203.87V1225.77H1827.54V1203.87H1817.54ZM1819.01 1229.31L1819.01 1229.31L1826.08 1222.24L1826.08 1222.24L1819.01 1229.31ZM1817.54 1225.77C1817.54 1227.78 1816.74 1229.71 1815.32 1231.12L1822.37 1238.21C1825.68 1234.92 1827.54 1230.44 1827.54 1225.77H1817.54ZM1815.32 1231.12C1813.9 1232.54 1811.97 1233.33 1809.96 1233.32L1809.9 1243.32C1814.57 1243.34 1819.06 1241.51 1822.37 1238.21L1815.32 1231.12ZM1810.78 1243.25L1810.78 1243.25L1809.09 1233.39L1809.09 1233.39L1810.78 1243.25Z" fill="black" mask="url(#path-93-inside-3_123_5)"/>
<mask id="path-95-inside-4_123_5" fill="white">
<path d="M1735.41 1212.67L1731.53 1208.72C1730.01 1207.27 1727.98 1206.46 1725.87 1206.49H1671.65V1202.04H1725.85C1729.14 1202.03 1732.31 1203.33 1734.65 1205.65L1735.41 1206.38L1736.06 1205.74C1738.41 1203.35 1741.62 1202.01 1744.97 1201.99H1798.87V1206.45H1745.01C1742.85 1206.46 1740.78 1207.32 1739.26 1208.86L1735.41 1212.67Z"/>
</mask>
<path d="M1735.41 1212.67L1731.85 1216.17L1735.36 1219.75L1738.93 1216.22L1735.41 1212.67ZM1731.53 1208.72L1735.1 1205.22L1735.05 1205.16L1734.99 1205.11L1731.53 1208.72ZM1725.87 1206.49V1211.49H1725.91L1725.94 1211.49L1725.87 1206.49ZM1671.65 1206.49H1666.65V1211.49H1671.65V1206.49ZM1671.65 1202.04V1197.04H1666.65V1202.04H1671.65ZM1725.85 1202.04V1207.04L1725.86 1207.04L1725.85 1202.04ZM1734.65 1205.65L1731.13 1209.2L1731.15 1209.22L1731.17 1209.23L1734.65 1205.65ZM1735.41 1206.38L1731.93 1209.97L1735.46 1213.4L1738.94 1209.92L1735.41 1206.38ZM1736.06 1205.74L1739.59 1209.27L1739.6 1209.26L1739.61 1209.25L1736.06 1205.74ZM1744.97 1201.99V1196.99H1744.96L1744.95 1196.99L1744.97 1201.99ZM1798.87 1201.99H1803.87V1196.99H1798.87V1201.99ZM1798.87 1206.45V1211.45H1803.87V1206.45H1798.87ZM1745.01 1206.45V1201.45H1745.01L1745 1201.45L1745.01 1206.45ZM1739.26 1208.86L1742.78 1212.41L1742.8 1212.39L1742.81 1212.38L1739.26 1208.86ZM1738.98 1209.16L1735.1 1205.22L1727.97 1212.23L1731.85 1216.17L1738.98 1209.16ZM1734.99 1205.11C1732.52 1202.75 1729.22 1201.45 1725.8 1201.49L1725.94 1211.49C1726.74 1211.48 1727.5 1211.78 1728.08 1212.33L1734.99 1205.11ZM1725.87 1201.49H1671.65V1211.49H1725.87V1201.49ZM1676.65 1206.49V1202.04H1666.65V1206.49H1676.65ZM1671.65 1207.04H1725.85V1197.04H1671.65V1207.04ZM1725.86 1207.04C1727.83 1207.03 1729.73 1207.81 1731.13 1209.2L1738.17 1202.1C1734.89 1198.84 1730.45 1197.03 1725.84 1197.04L1725.86 1207.04ZM1731.17 1209.23L1731.93 1209.97L1738.89 1202.8L1738.14 1202.06L1731.17 1209.23ZM1738.94 1209.92L1739.59 1209.27L1732.52 1202.2L1731.87 1202.85L1738.94 1209.92ZM1739.61 1209.25C1741.03 1207.81 1742.97 1207 1744.99 1206.99L1744.95 1196.99C1740.27 1197.01 1735.79 1198.89 1732.5 1202.22L1739.61 1209.25ZM1744.97 1206.99H1798.87V1196.99H1744.97V1206.99ZM1793.87 1201.99V1206.45H1803.87V1201.99H1793.87ZM1798.87 1201.45H1745.01V1211.45H1798.87V1201.45ZM1745 1201.45C1741.51 1201.46 1738.17 1202.86 1735.71 1205.33L1742.81 1212.38C1743.4 1211.78 1744.2 1211.45 1745.03 1211.45L1745 1201.45ZM1735.75 1205.3L1731.89 1209.11L1738.93 1216.22L1742.78 1212.41L1735.75 1205.3Z" fill="black" mask="url(#path-95-inside-4_123_5)"/>
<mask id="path-97-inside-5_123_5" fill="white">
<path d="M1664.56 1255.99L1680.55 1234.75L1684.11 1237.43L1668.12 1258.67L1664.56 1255.99Z"/>
</mask>
<path d="M1664.56 1255.99L1660.57 1252.98L1657.56 1256.98L1661.56 1259.99L1664.56 1255.99ZM1680.55 1234.75L1683.55 1230.75L1679.56 1227.75L1676.55 1231.74L1680.55 1234.75ZM1684.11 1237.43L1688.1 1240.43L1691.11 1236.44L1687.11 1233.43L1684.11 1237.43ZM1668.12 1258.67L1665.12 1262.67L1669.11 1265.67L1672.12 1261.68L1668.12 1258.67ZM1668.56 1259L1684.54 1237.75L1676.55 1231.74L1660.57 1252.98L1668.56 1259ZM1677.54 1238.74L1681.1 1241.42L1687.11 1233.43L1683.55 1230.75L1677.54 1238.74ZM1680.11 1234.42L1664.13 1255.66L1672.12 1261.68L1688.1 1240.43L1680.11 1234.42ZM1671.13 1254.68L1667.57 1252L1661.56 1259.99L1665.12 1262.67L1671.13 1254.68Z" fill="black" mask="url(#path-97-inside-5_123_5)"/>
<mask id="path-99-inside-6_123_5" fill="white">
<path d="M1787.44 1237.43L1791 1234.75L1804.5 1253.5L1800.94 1256.18L1787.44 1237.43Z"/>
</mask>
<path d="M1787.44 1237.43L1784.43 1233.43L1780.52 1236.37L1783.38 1240.35L1787.44 1237.43ZM1791 1234.75L1795.06 1231.83L1792.08 1227.68L1788 1230.75L1791 1234.75ZM1804.5 1253.5L1807.51 1257.5L1811.42 1254.56L1808.56 1250.58L1804.5 1253.5ZM1800.94 1256.18L1796.88 1259.1L1799.86 1263.25L1803.94 1260.18L1800.94 1256.18ZM1790.45 1241.42L1794.01 1238.74L1788 1230.75L1784.43 1233.43L1790.45 1241.42ZM1786.94 1237.67L1800.44 1256.42L1808.56 1250.58L1795.06 1231.83L1786.94 1237.67ZM1801.49 1249.51L1797.93 1252.19L1803.94 1260.18L1807.51 1257.5L1801.49 1249.51ZM1805 1253.26L1791.5 1234.51L1783.38 1240.35L1796.88 1259.1L1805 1253.26Z" fill="black" mask="url(#path-99-inside-6_123_5)"/>
<path d="M1807.09 568.495C1809.4 569.823 1811.11 571.979 1811.87 574.505C1807.48 580.469 1800.33 581.731 1792.52 580.69C1786.49 579.887 1780.48 577.745 1775.98 575.796L1787.08 568.89L1787.08 568.886C1790.04 567.031 1793.45 566.008 1796.95 565.923L1807.09 568.495ZM1807.09 568.495L1806.94 568.411C1803.89 566.699 1800.44 565.84 1796.95 565.923L1807.09 568.495ZM1773.42 577.392C1783.36 581.929 1803.11 588.718 1813.07 577.025M1816.76 637.515C1816.76 637.514 1816.76 637.514 1816.76 637.513L1816.76 637.515ZM1816.24 637.515V637.512C1816.24 637.513 1816.24 637.514 1816.24 637.515ZM1830.2 591.434L1830.78 592.012C1830.74 591.952 1830.7 591.891 1830.65 591.831L1830.2 591.165V591.434ZM1844.87 585.193L1844.87 585.193C1841.4 586.008 1838.27 587.858 1835.9 590.476C1838.48 593.508 1842.06 595.558 1846.03 596.231C1850.32 596.918 1854.87 596.044 1859.05 594.526C1861.45 593.655 1863.66 592.594 1865.56 591.56L1856.9 586.676C1853.19 584.768 1848.93 584.241 1844.87 585.193ZM1767.15 620.027C1766.51 621.595 1765.43 625.462 1764.48 628.995C1767.05 628.61 1770.09 628.003 1773.06 627.051C1777.31 625.688 1781.06 623.733 1783.3 621.045V621.01L1783.73 620.377C1785.39 617.911 1785.91 614.873 1785.2 612.023C1782 610.875 1778.52 610.759 1775.24 611.706C1771.52 613.223 1768.59 616.219 1767.17 619.975L1767.16 620.001L1767.15 620.027Z" stroke="black" stroke-width="5"/>
<path d="M48 899V895.5C52 893.1 55 890.5 56 889.5L64 883.5L75 872C75 872 85 868.5 91 865C97 861.5 105.5 856 105.5 856V866L100 876L88 889L67 897L48 899Z" fill="#0070A0"/>
<path d="M10.9999 838.5C19.7999 851.3 34.9999 851.167 40.9999 849.5C47.3999 842.7 16.9999 829 1.49994 823C0.999945 822.833 2.19994 825.7 10.9999 838.5Z" fill="#0070A0"/>
<path d="M208.729 820.72C207.466 802.631 194.817 780.723 173.473 779.79C172.124 731.719 118.096 717.778 84.1521 740.93C50.9752 762.119 42.1728 802.018 42.7261 839.257C37.3829 825.57 17.6716 811.764 2.09817 820.799C2.09817 820.615 1.3886 820.43 1.25333 821.606C1.33139 821.479 -1.78786 825.162 1.53437 824.841C4.76986 840.949 24.0441 856.979 42.7161 851.645C42.9 876.583 42.7161 902.483 43.1152 928.064C36.965 929.405 17.0978 927.228 14.3101 932.689C46.5 932.689 45.5 932.689 80 932.689C75.1169 927.919 59.2904 927.384 50.1478 927.919C50.401 919.582 50.1478 909.975 50.1478 899.745C72.6486 901.299 115.238 883.569 105.876 854.995C84.0549 843.569 57.1071 861.251 50.0989 884.033C33.2051 692.471 171.898 723.173 170.624 779.781C139.74 782.171 136.165 821.002 143.675 845.754C144.773 848.61 148.445 844.958 151.874 842.335V842.333C153.338 846.636 155.973 850.444 159.481 853.331C159.675 856.41 168.03 849.191 172.907 841.594C174.917 843.43 175.452 843.985 183.302 850.289C183.369 856.944 195.144 842.236 195.067 833.628C205.638 841.032 211.224 843.226 208.726 820.717L208.729 820.72ZM40.7542 848.448C25.3176 851.984 8.34559 839.937 3.11876 823.335C16.7199 815.795 35.7233 828.133 40.2302 843.629C39.5987 842.881 38.9481 842.142 38.2872 841.453C34.1045 837.258 28.9971 834.104 23.3745 832.243C21.8982 831.747 18.4302 830.532 17.8266 832.904C17.7919 833.034 17.87 833.169 18.0018 833.204C18.1337 833.239 18.269 833.161 18.3037 833.029C18.9647 830.94 24.5698 833.728 25.7547 834.262V834.264C28.0221 835.288 30.1837 836.533 32.2046 837.983C34.2309 839.446 36.108 841.101 37.8116 842.93C38.7016 843.889 39.5412 844.893 40.3271 845.941C40.5318 846.222 40.7261 846.535 40.9291 846.845C41.0072 847.341 41.0645 847.817 41.113 848.322L40.7542 848.448ZM104.405 857.27C104.008 884.626 75.1352 896.44 50.1873 896.732V895.76C50.6349 895.458 51.0721 895.118 51.5179 894.789C52.8 893.885 54.0543 892.943 55.2964 891.982C57.7772 890.039 60.1835 888.037 62.5151 885.977V885.976C67.2703 881.77 71.6697 877.178 75.6703 872.25C75.9809 871.861 75.457 871.278 75.1169 871.686C70.988 876.316 66.5605 880.67 61.8644 884.723C59.4738 886.753 57.0067 888.706 54.4619 890.552C53.1885 891.475 51.9064 892.36 50.5758 893.243L50.2549 893.456C50.6539 890.094 52.0712 886.656 53.8304 882.187C60.9816 863.757 83.1888 847.233 104.407 857.268L104.405 857.27ZM145.587 843.785C140.225 819.497 142.945 782.19 174.285 783.145C174.821 805.382 164.368 828.756 145.589 843.785H145.587ZM165.735 845.728H165.737C164.061 847.773 162.267 849.72 160.366 851.557C157.559 848.295 155.361 844.557 153.876 840.52C162.205 832.539 168.645 822.797 172.724 812.006C174.065 813.706 175.687 816.097 178.815 819.613C176.872 827.094 172.316 838.129 165.738 845.717L165.735 845.728ZM192.171 831.914C191.315 838.228 190.597 842.406 184.447 848.964C182.105 846.74 178.531 842.639 174.47 839.151C177.967 832.672 178.415 832.292 181.61 822.635L181.612 822.634C184.887 825.932 188.43 828.954 192.202 831.669C192.188 831.747 192.177 831.825 192.172 831.903L192.171 831.914ZM205.548 837.13C203.605 835.819 202.817 835.643 197.62 832.272C189.178 826.287 180.842 818.884 174.05 808.198H174.054C176.583 800.28 177.813 792.007 177.697 783.697C200.498 789.292 207.454 814.737 205.55 837.12L205.548 837.13Z" fill="black"/>
<path d="M1447.82 975.87L1432.48 956.671C1432.37 942.858 1426.77 929.654 1416.93 919.964C1407.08 910.274 1393.79 904.892 1379.98 905.002C1366.16 905.111 1352.96 910.705 1343.27 920.549C1333.58 930.394 1328.2 943.686 1328.31 957.5H1333.04C1333.04 944.942 1338.03 932.899 1346.91 924.021C1355.79 915.141 1367.83 910.152 1380.39 910.152C1392.95 910.152 1404.99 915.141 1413.87 924.021C1422.75 932.9 1427.74 944.943 1427.74 957.5C1427.74 958.035 1427.92 958.554 1428.26 958.968L1444.12 978.807H1434.84C1433.53 978.807 1432.47 979.867 1432.47 981.174V1007.22C1432.47 1009.1 1431.72 1010.9 1430.39 1012.23C1429.06 1013.56 1427.25 1014.31 1425.37 1014.32H1411.17C1409.86 1014.32 1408.8 1015.38 1408.8 1016.69V1042.73H1351.98V999.805C1351.98 999.13 1351.7 998.486 1351.2 998.029C1342.72 990.46 1336.83 980.426 1334.35 969.336H1375.66C1377.54 969.331 1379.34 968.581 1380.67 967.25C1382 965.919 1382.75 964.116 1382.76 962.234V957.902L1384.44 958.162C1385.29 958.304 1386.14 958.374 1387 958.375C1390.35 958.364 1393.62 957.344 1396.39 955.449C1399.15 953.553 1401.28 950.868 1402.5 947.745L1404.09 943.579H1404.09C1404.35 942.913 1404.3 942.165 1403.95 941.543C1403.58 940.929 1402.97 940.505 1402.27 940.383L1397.84 939.673C1392.2 938.814 1386.51 940.894 1382.76 945.189V936.193H1385.81C1388.18 936.204 1390.49 935.502 1392.46 934.174C1394.42 932.848 1395.93 930.96 1396.8 928.759L1399.17 922.863V922.864C1399.45 922.135 1399.36 921.315 1398.93 920.663C1398.49 920.01 1397.75 919.62 1396.96 919.621H1391.54C1389.18 919.609 1386.86 920.312 1384.9 921.639C1382.94 922.966 1381.43 924.853 1380.56 927.055L1380.39 927.458L1380.23 927.055C1379.36 924.853 1377.84 922.966 1375.88 921.639C1373.92 920.312 1371.61 919.609 1369.24 919.621H1363.82C1363.03 919.62 1362.3 920.01 1361.86 920.663C1361.43 921.315 1361.34 922.135 1361.62 922.864L1363.99 928.76V928.759C1364.85 930.96 1366.37 932.848 1368.33 934.174C1370.29 935.502 1372.6 936.204 1374.97 936.193H1378.02V945.189C1374.27 940.894 1368.58 938.814 1362.94 939.673L1358.52 940.383C1357.81 940.505 1357.2 940.929 1356.84 941.543C1356.48 942.165 1356.43 942.913 1356.69 943.579L1358.28 947.745H1358.28C1359.5 950.868 1361.63 953.553 1364.4 955.449C1367.16 957.344 1370.43 958.364 1373.79 958.375C1374.64 958.374 1375.5 958.304 1376.34 958.162L1378.02 957.902V962.234C1378.02 962.862 1377.78 963.464 1377.33 963.908C1376.89 964.352 1376.28 964.602 1375.66 964.602H1331.48C1330.79 964.605 1330.13 964.907 1329.68 965.43C1329.24 965.964 1329.04 966.66 1329.14 967.347C1331.32 980.205 1337.68 991.982 1347.25 1000.85V1045.09C1347.25 1045.72 1347.5 1046.32 1347.94 1046.77C1348.39 1047.21 1348.99 1047.46 1349.62 1047.46H1411.17C1411.8 1047.46 1412.4 1047.21 1412.84 1046.77C1413.29 1046.32 1413.54 1045.72 1413.54 1045.09V1019.05H1425.37C1428.51 1019.05 1431.52 1017.8 1433.74 1015.59C1435.96 1013.36 1437.21 1010.35 1437.21 1007.21V983.54H1444.12C1445.32 983.543 1446.47 983.092 1447.34 982.282C1448.22 981.471 1448.75 980.359 1448.84 979.169C1448.93 977.98 1448.56 976.802 1447.82 975.87L1447.82 975.87ZM1384.21 951.818C1385.18 949.29 1387 947.173 1389.34 945.816C1391.69 944.46 1394.43 943.946 1397.11 944.361L1398.62 944.597L1398.08 946.041C1397.1 948.569 1395.29 950.687 1392.94 952.043C1390.59 953.399 1387.86 953.913 1385.18 953.498L1383.66 953.262L1384.21 951.818ZM1384.94 928.831H1384.94C1385.46 927.507 1386.37 926.37 1387.55 925.572C1388.73 924.773 1390.12 924.35 1391.54 924.356H1393.46L1392.42 926.983H1392.42C1391.9 928.308 1390.99 929.444 1389.81 930.242C1388.63 931.041 1387.24 931.465 1385.82 931.458H1383.9L1384.94 928.831ZM1374.97 931.458C1373.55 931.465 1372.16 931.041 1370.98 930.242C1369.8 929.444 1368.89 928.308 1368.37 926.983L1367.33 924.356H1369.24C1370.67 924.35 1372.06 924.773 1373.24 925.572C1374.42 926.37 1375.33 927.507 1375.85 928.831L1376.89 931.458H1374.97ZM1375.61 953.498C1372.93 953.907 1370.2 953.392 1367.85 952.036C1365.51 950.681 1363.69 948.566 1362.71 946.041L1362.17 944.597L1363.68 944.361C1366.36 943.946 1369.1 944.46 1371.45 945.816C1373.79 947.173 1375.6 949.29 1376.58 951.818L1377.13 953.262L1375.61 953.498Z" fill="black"/>
<circle r="26.9506" transform="matrix(-1 0 0 1 445.605 763.451)" stroke="black" stroke-width="5"/>
<line x1="2.5" y1="-2.5" x2="45.9309" y2="-2.5" transform="matrix(0.699625 0.71451 0.699625 -0.71451 447.062 790.692)" stroke="black" stroke-width="5" stroke-linecap="round"/>
<line x1="443.845" y1="895.419" x2="482.138" y2="933.712" stroke="black" stroke-width="5"/>
<line x1="2.5" y1="-2.5" x2="45.9309" y2="-2.5" transform="matrix(0.699625 -0.71451 0.699625 0.71451 411.736 827.505)" stroke="black" stroke-width="5" stroke-linecap="round"/>
<line x1="407.837" y1="934.628" x2="444.837" y2="897.628" stroke="black" stroke-width="5"/>
<path d="M444.868 900.396L444.868 792.165" stroke="black" stroke-width="5"/>
<circle r="2" transform="matrix(-1 0 0 1 456.649 754.615)" stroke="black" stroke-width="1.89011"/>
<circle r="2" transform="matrix(-1 0 0 1 441.187 757.56)" stroke="black" stroke-width="1.89011"/>
<circle r="2.94506" transform="matrix(-1 0 0 1 431.615 766.396)" fill="#FFB8EF"/>
<mask id="path-115-inside-7_123_5" fill="white">
<path d="M444.891 775.931C444.665 774.969 446.757 773.11 451.5 772C456.243 770.89 457.665 771.968 457.891 772.931C458.116 773.894 456.559 773.377 451.816 774.486C447.073 775.596 445.116 776.894 444.891 775.931Z"/>
</mask>
<path d="M449.759 774.792C450.183 776.604 449.342 777.819 449.201 778.014C448.978 778.319 448.86 778.345 449.102 778.183C449.555 777.882 450.662 777.331 452.639 776.869L450.361 767.131C447.595 767.778 445.285 768.712 443.562 769.858C442.717 770.42 441.822 771.161 441.122 772.12C440.503 772.968 439.486 774.778 440.022 777.07L449.759 774.792ZM452.639 776.869C453.607 776.642 454.281 776.557 454.716 776.536C455.161 776.514 455.265 776.562 455.144 776.531C455.012 776.497 454.572 776.355 454.086 775.91C453.577 775.444 453.193 774.801 453.022 774.07L462.759 771.792C462.13 769.103 459.984 767.45 457.635 766.846C455.525 766.303 453.063 766.499 450.361 767.131L452.639 776.869ZM453.022 774.07C452.932 773.686 452.754 772.672 453.211 771.462C453.712 770.136 454.656 769.396 455.283 769.049C455.814 768.755 456.236 768.672 456.238 768.672C456.285 768.661 456.255 768.67 456.043 768.699C455.217 768.811 453.34 768.995 450.677 769.618L452.955 779.355C455.035 778.868 456.307 778.755 457.39 778.608C457.655 778.572 458.024 778.519 458.398 778.436C458.727 778.363 459.404 778.197 460.124 777.799C460.94 777.348 462.005 776.482 462.566 774.996C463.084 773.625 462.905 772.417 462.759 771.792L453.022 774.07ZM450.677 769.618C448.079 770.225 446.086 770.93 445.184 771.208C444.943 771.283 444.834 771.311 444.799 771.319C444.733 771.335 444.958 771.273 445.338 771.268C445.689 771.264 446.697 771.297 447.771 771.991C449.003 772.787 449.561 773.943 449.759 774.792L440.022 777.07C440.277 778.16 440.945 779.487 442.345 780.391C443.588 781.194 444.823 781.275 445.464 781.267C446.596 781.253 447.702 780.897 448.134 780.763C449.453 780.356 450.809 779.857 452.955 779.355L450.677 769.618Z" fill="black" mask="url(#path-115-inside-7_123_5)"/>
<line x1="-2.18557e-07" y1="511.5" x2="1920" y2="511.5" stroke="black" stroke-width="5"/>
<path d="M501.195 511.25L824 132.852L1146.8 511.25H501.195Z" stroke="black" stroke-width="5"/>
<path d="M433.512 511.25L823 54.8514L1212.49 511.25H433.512Z" stroke="black" stroke-width="5"/>
<path d="M745 227L789.25 245L823.5 231.5L857.75 245L903 227" stroke="black" stroke-width="5"/>
<path d="M752.5 218.5L789.25 233.5L823.5 220L857.75 233.5L896 218.5" stroke="black" stroke-width="5"/>
<line x1="887" y1="329.5" x2="993" y2="329.5" stroke="black" stroke-width="5"/>
<line x1="887" y1="311.5" x2="978" y2="311.5" stroke="black" stroke-width="5"/>
<line x1="887" y1="347.5" x2="1007" y2="347.5" stroke="black" stroke-width="5"/>
<line x1="887" y1="365.5" x2="1023" y2="365.5" stroke="black" stroke-width="5"/>
<line x1="887" y1="383.5" x2="1039" y2="383.5" stroke="black" stroke-width="5"/>
<line x1="887" y1="401.5" x2="1054" y2="401.5" stroke="black" stroke-width="5"/>
<line x1="887" y1="419.5" x2="1070" y2="419.5" stroke="black" stroke-width="5"/>
<line x1="887" y1="437.5" x2="1083" y2="437.5" stroke="black" stroke-width="5"/>
<line x1="887" y1="455.5" x2="1099" y2="455.5" stroke="black" stroke-width="5"/>
<path d="M504.619 459.958C500.886 456.912 496.73 457.694 493.368 461.679L486.75 469.524L504.955 484.377L507.849 480.947L501.252 475.565L504.976 471.151C508.338 467.165 508.378 463.025 504.619 459.958ZM501.725 463.388C503.924 465.182 503.879 467.232 501.964 469.502L498.644 473.437L492.252 468.221L495.572 464.287C497.487 462.016 499.552 461.615 501.725 463.388ZM529.818 454.907L526.98 452.591L518.83 462.251L513.716 458.079L521.185 449.226L518.526 447.056L511.057 455.909L506.301 452.029L514.451 442.369L511.613 440.053L500.569 453.144L518.774 467.997L529.818 454.907ZM542.639 439.709L539.801 437.393L531.651 447.053L526.538 442.881L534.007 434.028L531.347 431.858L523.878 440.711L519.123 436.831L527.272 427.171L524.434 424.855L513.39 437.946L531.596 452.799L542.639 439.709ZM543.468 412.681C540.297 410.095 536.49 410.565 533.255 414.399L526.212 422.748L544.417 437.602L547.311 434.171L539.947 428.163L543.394 424.077C544.884 422.311 546.549 421.413 548.799 423.248L551.535 425.481C552.327 426.127 553.039 426.41 553.716 426.579L556.482 423.3C555.92 423.097 555.196 422.676 554.429 422.05L551.565 419.714C549.545 418.066 547.313 417.948 545.24 419.536C546.371 416.967 545.769 414.559 543.468 412.681ZM540.804 416.3C542.517 417.697 542.872 419.477 541.169 421.495L537.339 426.035L531.714 421.446L535.544 416.905C537.247 414.888 539.091 414.902 540.804 416.3ZM564.36 414.474C568.573 409.48 568.34 405.202 564.94 402.428C561.795 399.862 558.686 400.732 555.064 403.951L552.795 405.975C550.441 408.1 549.312 408.159 548.059 407.137C546.397 405.781 546.166 403.803 548.187 401.407C550.209 399.011 552.287 398.748 554.627 400.273L557.372 397.019C553.818 394.12 549.58 394.537 545.643 399.204C541.707 403.87 542.097 408.064 545.37 410.734C548.336 413.154 550.9 412.776 554.607 409.456L556.876 407.432C559.605 405.016 560.997 405.003 562.25 406.025C563.938 407.402 564.114 409.547 561.816 412.271C559.454 415.071 557.439 415.258 554.802 413.575L551.993 416.904C555.879 420.075 560.147 419.469 564.36 414.474Z" fill="#113545"/>
<path d="M753.24 195.517C755.096 193.365 755.133 190.771 753.295 189.238L751.594 191.21C752.386 192.07 752.446 193.051 751.541 194.1C750.462 195.351 749.138 195.322 747.687 194.112C746.235 192.901 745.99 191.621 747.069 190.37C747.992 189.299 749.01 189.255 749.895 189.793L751.596 187.821C749.79 186.314 747.19 186.843 745.37 188.953C743.267 191.392 743.58 194.223 745.913 196.169C748.246 198.114 751.137 197.956 753.24 195.517ZM759.903 187.79C761.814 185.574 761.815 183.515 759.837 181.865L755.085 177.902L753.311 179.958L757.848 183.743C759.009 184.711 759.018 185.429 758.205 186.373C757.391 187.317 756.669 187.425 755.508 186.457L750.971 182.673L749.197 184.729L753.949 188.693C755.927 190.343 757.992 190.006 759.903 187.79ZM763.655 172.443C762.29 171.304 760.576 171.533 759.095 173.251L755.904 176.951L763.559 183.336L765.333 181.279L762.473 178.894L763.424 177.791C763.936 177.197 764.467 176.839 765.338 177.565L766.424 178.471C766.757 178.749 767.058 178.872 767.344 178.947L769.063 176.953C768.826 176.865 768.52 176.683 768.198 176.414L767.026 175.436C766.187 174.737 765.227 174.629 764.314 175.344C764.815 174.249 764.612 173.241 763.655 172.443ZM762.032 174.625C762.57 175.074 762.626 175.63 762.123 176.214L760.925 177.602L759.226 176.186L760.424 174.797C760.927 174.214 761.495 174.177 762.032 174.625ZM769.887 165.216C768.522 164.077 766.808 164.306 765.327 166.024L762.137 169.724L769.791 176.109L771.565 174.052L768.705 171.667L769.656 170.564C770.168 169.97 770.699 169.611 771.57 170.338L772.656 171.244C772.989 171.522 773.29 171.645 773.576 171.72L775.295 169.726C775.058 169.637 774.752 169.456 774.43 169.187L773.258 168.209C772.419 167.51 771.459 167.402 770.546 168.117C771.047 167.022 770.844 166.014 769.887 165.216ZM768.264 167.398C768.802 167.847 768.858 168.403 768.355 168.987L767.157 170.375L765.458 168.959L766.656 167.57C767.159 166.987 767.727 166.95 768.264 167.398ZM777.797 166.825L770.142 160.44L768.369 162.497L776.023 168.882L777.797 166.825ZM781.936 162.24C783.792 160.087 783.829 157.494 781.991 155.96L780.29 157.932C781.082 158.793 781.142 159.773 780.237 160.823C779.159 162.074 777.834 162.045 776.383 160.834C774.931 159.624 774.686 158.344 775.765 157.092C776.688 156.022 777.706 155.977 778.592 156.515L780.292 154.543C778.486 153.037 775.886 153.566 774.066 155.676C771.963 158.114 772.276 160.945 774.609 162.891C776.942 164.837 779.833 164.678 781.936 162.24ZM788.599 154.513C790.51 152.297 790.511 150.238 788.533 148.588L783.781 144.624L782.007 146.681L786.544 150.465C787.705 151.434 787.714 152.152 786.901 153.096C786.087 154.039 785.365 154.148 784.204 153.179L779.667 149.395L777.893 151.452L782.645 155.416C784.623 157.066 786.689 156.728 788.599 154.513ZM796.936 144.63L795.238 143.213L792.33 146.585L786.374 141.617L784.601 143.674L792.255 150.059L796.936 144.63ZM800.43 140.794C802.34 138.578 802.341 136.519 800.363 134.869L795.611 130.905L793.838 132.962L798.375 136.746C799.536 137.715 799.545 138.433 798.731 139.377C797.917 140.32 797.195 140.429 796.034 139.461L791.497 135.676L789.723 137.733L794.475 141.697C796.454 143.347 798.519 143.01 800.43 140.794ZM811.601 127.625L803.946 121.24L801.148 124.484L804.639 129.31L799.228 126.711L796.431 129.955L804.086 136.34L805.768 134.389L799.962 129.546L807.103 132.841L808.584 131.123L804.113 124.733L809.919 129.575L811.601 127.625Z" fill="#113545"/>
<path d="M734.754 194.308L724.794 190.626L722.613 193.182L728.029 202.189L729.828 200.08L728.957 198.708L731.429 195.811L732.955 196.417L734.754 194.308ZM729.413 194.982L727.777 196.899L725.561 193.436L729.413 194.982ZM737.656 190.907L731.674 185.97L733.537 183.787L731.831 182.379L726.342 188.811L728.048 190.219L729.911 188.036L735.893 192.973L737.656 190.907ZM743.504 184.053L737.523 179.116L739.385 176.933L737.679 175.525L732.191 181.957L733.897 183.365L735.76 181.182L741.742 186.119L743.504 184.053ZM750.947 175.33L749.241 173.922L745.97 177.756L744.555 176.589L747.536 173.096L745.938 171.777L742.957 175.27L741.694 174.227L744.965 170.394L743.259 168.986L738.225 174.886L745.913 181.23L750.947 175.33ZM757.471 167.684L749.783 161.34L748.111 163.299L752.776 167.149L745.785 166.026L743.931 168.198L751.619 174.543L753.291 172.583L748.627 168.734L755.618 169.857L757.471 167.684ZM760.644 156.289C758.193 154.266 755.61 154.512 753.429 157.068L750.693 160.273L758.381 166.618L761.117 163.412C763.298 160.856 763.095 158.312 760.644 156.289ZM758.881 158.355C760.36 159.576 760.575 160.769 759.566 161.951L758.503 163.197L754.098 159.562L755.161 158.316C756.17 157.133 757.402 157.134 758.881 158.355ZM771.032 151.792L761.073 148.109L758.892 150.665L764.308 159.673L766.107 157.564L765.236 156.191L767.707 153.295L769.233 153.9L771.032 151.792ZM765.691 152.466L764.056 154.383L761.839 150.92L765.691 152.466ZM777.341 144.398L769.653 138.054L767.981 140.013L772.646 143.863L765.655 142.739L763.801 144.912L771.489 151.257L773.161 149.297L768.496 145.448L775.487 146.571L777.341 144.398ZM781.458 139.789C783.303 137.627 783.326 135.033 781.48 133.51L779.79 135.49C780.586 136.347 780.651 137.327 779.752 138.381C778.68 139.638 777.355 139.616 775.897 138.413C774.44 137.21 774.188 135.931 775.26 134.674C776.178 133.599 777.195 133.549 778.084 134.082L779.774 132.102C777.96 130.604 775.362 131.147 773.554 133.266C771.464 135.716 771.791 138.545 774.135 140.479C776.478 142.413 779.368 142.239 781.458 139.789ZM790.172 129.361L788.466 127.953L785.195 131.787L783.78 130.62L786.761 127.127L785.163 125.808L782.182 129.301L780.919 128.258L784.19 124.424L782.484 123.016L777.45 128.916L785.138 135.261L790.172 129.361Z" fill="#113545"/>
<path d="M583.595 389.898L580.708 387.494L583.491 384.263L582.012 383.031L579.23 386.262L578.061 385.289L581.115 381.743L579.537 380.428L574.837 385.886L581.95 391.809L583.595 389.898ZM589.906 382.768C591.679 380.709 591.679 378.797 589.841 377.266L585.426 373.589L583.78 375.5L587.995 379.011C589.074 379.909 589.083 380.576 588.328 381.453C587.573 382.33 586.903 382.431 585.824 381.533L581.608 378.022L579.963 379.933L584.378 383.61C586.216 385.141 588.134 384.827 589.906 382.768ZM598.761 372.285L591.649 366.362L590.088 368.174L594.403 371.768L587.916 370.696L586.186 372.706L593.298 378.629L594.859 376.817L590.544 373.223L597.031 374.295L598.761 372.285Z" fill="#113545"/>
<path d="M579.335 375.418L576.449 373.013L579.231 369.782L577.752 368.551L574.97 371.782L573.801 370.809L576.855 367.262L575.277 365.948L570.578 371.405L577.69 377.329L579.335 375.418ZM582.982 361.162C581.714 360.106 580.123 360.32 578.748 361.916L575.788 365.354L582.9 371.278L584.546 369.366L581.889 367.153L582.771 366.129C583.246 365.577 583.739 365.244 584.548 365.918L585.557 366.758C585.867 367.016 586.146 367.13 586.412 367.199L588.007 365.347C587.786 365.265 587.502 365.096 587.203 364.847L586.114 363.94C585.335 363.291 584.443 363.191 583.596 363.856C584.06 362.839 583.871 361.903 582.982 361.162ZM581.477 363.19C581.976 363.606 582.028 364.123 581.562 364.665L580.45 365.955L578.872 364.641L579.983 363.35C580.45 362.809 580.977 362.774 581.477 363.19ZM590.328 362.651L583.216 356.728L581.57 358.639L588.682 364.563L590.328 362.651ZM595.875 356.209L594.297 354.895L591.243 358.441L589.935 357.351L592.717 354.12L591.238 352.889L588.456 356.12L587.287 355.147L590.341 351.6L588.763 350.286L584.063 355.743L591.176 361.667L595.875 356.209ZM601.965 349.137L594.853 343.213L593.292 345.026L597.607 348.62L591.12 347.548L589.39 349.557L596.502 355.481L598.063 353.668L593.748 350.074L600.235 351.146L601.965 349.137ZM604.959 338.569C602.691 336.68 600.291 336.897 598.255 339.262L595.702 342.227L602.814 348.15L605.368 345.185C607.404 342.821 607.226 340.457 604.959 338.569ZM603.313 340.48C604.682 341.619 604.876 342.729 603.934 343.822L602.942 344.975L598.866 341.58L599.859 340.428C600.8 339.334 601.944 339.34 603.313 340.48ZM611.628 338.115C613.409 336.046 613.331 334.204 612.042 333.131C610.654 331.975 609.329 332.377 607.795 333.721L607.084 334.347C606.252 335.075 605.959 335.136 605.569 334.811C605.19 334.495 605.126 333.952 605.711 333.272C606.288 332.602 606.937 332.466 607.614 332.894L609.192 331.062C607.804 329.906 605.987 330.084 604.315 332.025C602.644 333.965 602.765 335.757 604.054 336.831C605.402 337.954 606.477 337.682 608.012 336.338L608.722 335.712C609.685 334.873 610.117 334.809 610.526 335.15C610.896 335.458 610.876 336.119 610.232 336.867C609.553 337.655 608.932 337.798 608.127 337.28L606.498 339.171C608.027 340.444 609.846 340.183 611.628 338.115Z" fill="#113545"/>
<path d="M607.789 362.129L604.891 359.739L607.658 356.494L606.173 355.27L603.407 358.515L602.233 357.547L605.27 353.986L603.685 352.679L599.012 358.159L606.153 364.048L607.789 362.129ZM616.007 352.492L614.423 351.185L611.386 354.746L610.072 353.663L612.839 350.418L611.355 349.194L608.588 352.439L607.415 351.471L610.451 347.91L608.867 346.603L604.194 352.083L611.334 357.972L616.007 352.492ZM622.451 344.936L613.202 341.519L611.178 343.893L616.209 352.256L617.88 350.297L617.07 349.023L619.364 346.332L620.781 346.894L622.451 344.936ZM617.492 345.563L615.974 347.344L613.915 344.129L617.492 345.563ZM622.909 334.323C621.635 333.273 620.045 333.495 618.679 335.097L615.735 338.549L622.875 344.439L624.512 342.52L621.844 340.32L622.721 339.291C623.194 338.737 623.685 338.401 624.497 339.071L625.51 339.906C625.821 340.163 626.101 340.276 626.367 340.344L627.953 338.484C627.732 338.403 627.448 338.236 627.147 337.987L626.054 337.086C625.271 336.441 624.379 336.345 623.536 337.014C623.995 335.994 623.801 335.06 622.909 334.323ZM621.413 336.358C621.914 336.772 621.969 337.289 621.505 337.833L620.4 339.129L618.815 337.822L619.92 336.526C620.384 335.982 620.911 335.945 621.413 336.358Z" fill="#113545"/>
<path d="M643.214 322.748C647.499 317.815 647.328 313.534 643.968 310.711C640.86 308.099 637.739 308.925 634.071 312.091L631.773 314.083C629.389 316.173 628.259 316.216 627.021 315.175C625.379 313.796 625.176 311.815 627.232 309.448C629.288 307.082 631.37 306.848 633.687 308.407L636.479 305.194C632.967 302.243 628.723 302.599 624.72 307.208C620.716 311.817 621.046 316.016 624.28 318.734C627.211 321.196 629.78 320.855 633.535 317.589L635.833 315.598C638.596 313.222 639.989 313.228 641.227 314.269C642.894 315.67 643.039 317.817 640.702 320.508C638.3 323.273 636.283 323.432 633.67 321.71L630.813 324.999C634.654 328.225 638.929 327.681 643.214 322.748ZM658.376 305.294C663.288 299.638 662.272 293.311 656.79 288.705C651.307 284.098 644.794 284.099 639.882 289.754C634.991 295.384 636.007 301.712 641.489 306.318C646.972 310.925 653.485 310.924 658.376 305.294ZM655.571 302.937C652.477 306.5 648.576 306.412 644.433 302.93C640.289 299.448 639.591 295.673 642.686 292.11C645.802 288.523 649.703 288.611 653.846 292.093C657.99 295.574 658.688 299.35 655.571 302.937ZM674.839 286.341C679.167 281.358 678.952 275.618 674.986 272.285L672.194 275.499C674.486 277.942 674.675 280.945 672.035 283.985C668.94 287.547 665.039 287.459 660.896 283.977C656.752 280.496 656.055 276.72 659.149 273.158C661.833 270.069 664.936 269.918 667.495 271.551L670.286 268.337C666.395 265.068 660.586 265.918 656.345 270.801C651.454 276.432 652.47 282.759 657.953 287.366C663.435 291.972 669.948 291.971 674.839 286.341ZM686.431 272.493L668.442 257.378L665.499 260.766L683.488 275.881L686.431 272.493ZM700.045 256.82L697.241 254.464L688.952 264.006L683.899 259.76L691.495 251.015L688.868 248.807L681.272 257.552L676.572 253.603L684.861 244.062L682.056 241.705L670.825 254.635L688.814 269.75L700.045 256.82ZM708.605 246.966L693.42 234.207L698.117 228.801L695.312 226.445L682.998 240.621L685.803 242.977L690.477 237.596L705.662 250.354L708.605 246.966ZM720.057 233.783L723 230.395L715.723 224.281L710.875 208.528L707.478 212.44L711.043 223.279L699.601 221.508L696.203 225.419L712.78 227.669L720.057 233.783Z" fill="#113545"/>
<path d="M924.427 229.44C928.661 234.417 932.919 234.891 936.215 231.993C939.263 229.313 938.916 226.103 936.336 222.001L934.713 219.43C933.004 216.759 933.132 215.636 934.346 214.568C935.957 213.152 937.946 213.249 939.977 215.637C942.008 218.025 941.926 220.118 940.036 222.175L942.794 225.418C946.239 222.389 946.524 218.14 942.569 213.49C938.613 208.839 934.413 208.535 931.24 211.324C928.365 213.851 928.317 216.442 930.982 220.646L932.605 223.216C934.539 226.305 934.323 227.681 933.109 228.749C931.473 230.187 929.328 230.008 927.019 227.293C924.646 224.503 924.793 222.485 926.887 220.16L924.065 216.842C920.298 220.154 920.194 224.463 924.427 229.44ZM936.2 242.772L939.107 246.191L946.245 239.915L962.547 237.489L959.19 233.542L947.938 235.439L951.408 224.392L948.051 220.445L943.337 236.497L936.2 242.772ZM950.401 259.978C954.634 264.956 958.892 265.43 962.188 262.531C965.236 259.851 964.889 256.642 962.309 252.539L960.686 249.969C958.977 247.297 959.105 246.174 960.319 245.107C961.93 243.69 963.919 243.787 965.95 246.175C967.981 248.563 967.899 250.657 966.009 252.713L968.767 255.956C972.212 252.927 972.497 248.679 968.542 244.028C964.587 239.378 960.386 239.073 957.213 241.862C954.339 244.39 954.29 246.981 956.955 251.184L958.578 253.755C960.512 256.843 960.297 258.219 959.082 259.287C957.446 260.725 955.302 260.546 952.993 257.831C950.619 255.041 950.766 253.023 952.86 250.698L950.038 247.38C946.271 250.692 946.167 255.001 950.401 259.978ZM964.869 276.481L979.764 263.385L984.403 268.84L987.154 266.421L974.989 252.118L972.238 254.536L976.856 259.966L961.961 273.062L964.869 276.481ZM982.093 296.732L984.844 294.314L976.656 284.686L981.612 280.328L989.117 289.151L991.694 286.885L984.19 278.062L988.799 274.009L996.988 283.637L999.739 281.218L988.643 268.171L970.997 283.686L982.093 296.732ZM1000.71 318.616L1018.35 303.101L1013.78 297.722L997.362 304.244L1006.08 288.672L1001.52 283.318L983.879 298.832L986.637 302.075L1001.23 289.241L991.063 307.279L993.522 310.169L1012.52 302.513L997.926 315.348L1000.71 318.616Z" fill="#113545"/>
<path d="M845.037 130.049C846.613 128.662 846.622 126.771 845.061 124.937L842.076 121.43L834.592 128.014L836.353 130.083L838.833 127.9L840.058 129.339C841.619 131.173 843.46 131.436 845.037 130.049ZM843.277 127.98C842.562 128.609 841.944 128.445 841.299 127.688L840.347 126.568L842.323 124.83L843.275 125.949C843.92 126.706 843.991 127.352 843.277 127.98ZM851.438 136.944C852.773 135.769 852.809 134.041 851.339 132.313L848.172 128.593L840.689 135.177L842.449 137.246L845.245 134.786L846.189 135.894C846.697 136.491 846.97 137.071 846.119 137.821L845.057 138.755C844.731 139.041 844.564 139.319 844.446 139.591L846.151 141.595C846.276 141.374 846.502 141.1 846.818 140.823L847.963 139.815C848.783 139.093 849.037 138.161 848.47 137.15C849.476 137.813 850.503 137.767 851.438 136.944ZM849.531 135.005C849.005 135.467 848.446 135.437 847.947 134.85L846.759 133.454L848.419 131.993L849.608 133.389C850.107 133.976 850.056 134.542 849.531 135.005ZM851.901 148.351L853.562 146.889L850.295 143.051L851.672 141.84L854.648 145.337L856.204 143.968L853.228 140.471L854.457 139.389L857.724 143.227L859.385 141.766L854.358 135.86L846.874 142.444L851.901 148.351ZM855.053 152.27C856.959 154.509 858.931 154.731 860.287 153.538C861.748 152.252 861.539 150.777 860.364 148.921L859.816 148.06C859.18 147.054 859.164 146.733 859.573 146.372C859.973 146.021 860.562 146.043 861.188 146.779C861.805 147.504 861.842 148.217 861.274 148.866L862.961 150.849C864.422 149.564 864.534 147.6 862.747 145.5C860.959 143.4 859.032 143.231 857.676 144.424C856.258 145.672 856.369 146.861 857.544 148.717L858.092 149.577C858.825 150.741 858.821 151.211 858.39 151.59C858.001 151.932 857.302 151.802 856.612 150.991C855.886 150.138 855.837 149.454 856.523 148.683L854.78 146.636C853.172 148.051 853.147 150.031 855.053 152.27ZM861.132 159.412C863.038 161.651 865.01 161.873 866.366 160.68C867.827 159.395 867.618 157.919 866.443 156.063L865.895 155.203C865.259 154.196 865.242 153.875 865.652 153.514C866.052 153.163 866.641 153.185 867.267 153.921C867.884 154.646 867.921 155.359 867.353 156.008L869.04 157.991C870.501 156.706 870.613 154.743 868.826 152.642C867.038 150.542 865.111 150.373 863.755 151.566C862.336 152.815 862.448 154.003 863.623 155.859L864.171 156.719C864.904 157.883 864.9 158.353 864.469 158.732C864.08 159.074 863.381 158.944 862.691 158.133C861.965 157.281 861.916 156.597 862.602 155.826L860.859 153.779C859.251 155.194 859.226 157.173 861.132 159.412ZM867.456 166.842C869.352 169.07 871.387 169.387 873.321 167.685L877.967 163.598L876.206 161.529L871.771 165.432C870.635 166.431 869.924 166.33 869.117 165.381C868.309 164.432 868.312 163.702 869.448 162.703L873.883 158.8L872.123 156.732L867.477 160.82C865.543 162.521 865.559 164.614 867.456 166.842ZM882.046 172.904C883.381 171.73 883.417 170.001 881.947 168.274L878.78 164.553L871.296 171.138L873.057 173.206L875.852 170.746L876.796 171.855C877.304 172.452 877.577 173.032 876.726 173.781L875.664 174.715C875.339 175.002 875.171 175.28 875.053 175.552L876.759 177.556C876.883 177.335 877.11 177.061 877.425 176.783L878.571 175.775C879.39 175.054 879.645 174.122 879.078 173.11C880.083 173.773 881.11 173.727 882.046 172.904ZM880.138 170.965C879.613 171.428 879.054 171.397 878.555 170.811L877.366 169.415L879.027 167.953L880.215 169.35C880.714 169.936 880.664 170.503 880.138 170.965ZM882.509 184.311L884.169 182.85L880.903 179.012L882.279 177.801L885.256 181.297L886.811 179.929L883.835 176.432L885.065 175.35L888.331 179.188L889.992 177.727L884.965 171.82L877.482 178.405L882.509 184.311Z" fill="#113545"/>
<path d="M862.901 127.151C864.473 125.759 864.475 123.868 862.909 122.04L859.912 118.542L852.45 125.151L854.217 127.214L856.69 125.023L857.92 126.458C859.487 128.287 861.329 128.544 862.901 127.151ZM861.134 125.089C860.421 125.72 859.803 125.557 859.156 124.803L858.199 123.686L860.17 121.941L861.126 123.057C861.773 123.812 861.847 124.458 861.134 125.089ZM863.234 137.737L864.89 136.271L861.993 132.89L867.799 127.747L866.032 125.685L858.57 132.294L863.234 137.737ZM870.246 145.921L875.431 136.654L873.244 134.103L863.505 138.054L865.309 140.159L866.8 139.511L869.278 142.403L868.442 143.816L870.246 145.921ZM870.41 140.54L868.77 138.627L872.535 136.975L870.41 140.54ZM873.34 149.748C875.189 151.906 877.748 152.332 879.54 150.745L877.846 148.768C876.876 149.421 875.898 149.334 874.996 148.281C873.921 147.027 874.149 145.722 875.563 144.469C876.978 143.216 878.281 143.165 879.356 144.42C880.276 145.493 880.167 146.506 879.502 147.301L881.196 149.278C882.957 147.719 882.824 145.069 881.012 142.953C878.917 140.508 876.071 140.392 873.796 142.406C871.522 144.42 871.245 147.303 873.34 149.748ZM882.288 159.976L883.944 158.509L880.665 154.682L882.037 153.466L885.025 156.953L886.576 155.579L883.589 152.092L884.815 151.006L888.094 154.834L889.75 153.367L884.704 147.477L877.242 154.086L882.288 159.976ZM890.449 169.501L897.911 162.892L895.124 159.639L889.828 162.365L893.211 157.406L890.423 154.153L882.961 160.762L884.637 162.718L890.297 157.706L885.967 164.27L887.443 165.993L894.432 162.532L888.773 167.545L890.449 169.501ZM896.405 176.453L898.061 174.986L894.782 171.159L896.155 169.943L899.142 173.43L900.693 172.056L897.706 168.569L898.932 167.483L902.211 171.31L903.867 169.844L898.821 163.954L891.359 170.563L896.405 176.453ZM902.945 184.085L910.407 177.476L908.731 175.52L904.203 179.53L906.399 172.798L904.54 170.63L897.078 177.239L898.755 179.195L903.282 175.185L901.086 181.916L902.945 184.085ZM907.127 188.967L912.933 183.824L914.8 186.004L916.456 184.537L910.954 178.116L909.299 179.582L911.166 181.762L905.36 186.904L907.127 188.967ZM911.872 194.72C913.785 196.953 915.758 197.168 917.11 195.971C918.567 194.681 918.354 193.206 917.172 191.353L916.621 190.495C915.982 189.491 915.965 189.169 916.373 188.807C916.772 188.455 917.361 188.475 917.989 189.209C918.608 189.932 918.648 190.645 918.082 191.296L919.776 193.273C921.233 191.983 921.338 190.02 919.544 187.925C917.749 185.831 915.822 185.668 914.47 186.866C913.055 188.119 913.17 189.307 914.351 191.159L914.902 192.017C915.639 193.179 915.636 193.649 915.207 194.029C914.819 194.373 914.119 194.244 913.427 193.436C912.698 192.586 912.647 191.902 913.33 191.129L911.581 189.088C909.978 190.508 909.959 192.487 911.872 194.72Z" fill="#113545"/>
<path d="M1014.97 336.98C1016.79 339.159 1019.35 339.614 1021.16 338.047L1019.48 336.05C1018.51 336.693 1017.53 336.595 1016.64 335.532C1015.58 334.266 1015.82 332.963 1017.25 331.726C1018.68 330.489 1019.98 330.453 1021.04 331.72C1021.95 332.804 1021.83 333.816 1021.16 334.603L1022.83 336.599C1024.61 335.059 1024.5 332.408 1022.71 330.272C1020.65 327.803 1017.8 327.655 1015.51 329.644C1013.21 331.633 1012.9 334.511 1014.97 336.98ZM1023.42 346.857L1025.09 345.409L1022.24 341.996L1028.1 336.919L1026.36 334.837L1018.82 341.362L1023.42 346.857ZM1030.34 355.12L1035.63 345.912L1033.47 343.336L1023.69 347.177L1025.47 349.302L1026.97 348.672L1029.41 351.591L1028.56 352.995L1030.34 355.12ZM1030.57 349.741L1028.95 347.809L1032.73 346.2L1030.57 349.741ZM1033.16 358.705C1035.05 360.959 1037.02 361.197 1038.39 360.014C1039.86 358.741 1039.66 357.263 1038.5 355.398L1037.96 354.533C1037.33 353.522 1037.32 353.2 1037.73 352.843C1038.13 352.495 1038.72 352.522 1039.34 353.263C1039.95 353.992 1039.98 354.706 1039.41 355.351L1041.08 357.347C1042.55 356.073 1042.68 354.111 1040.91 351.997C1039.14 349.882 1037.21 349.698 1035.85 350.88C1034.42 352.117 1034.52 353.307 1035.68 355.172L1036.22 356.036C1036.95 357.206 1036.94 357.676 1036.5 358.051C1036.11 358.39 1035.41 358.254 1034.73 357.439C1034.01 356.58 1033.97 355.896 1034.66 355.13L1032.93 353.069C1031.31 354.471 1031.27 356.451 1033.16 358.705ZM1039.18 365.895C1041.07 368.149 1043.04 368.387 1044.41 367.205C1045.88 365.931 1045.68 364.453 1044.52 362.588L1043.98 361.724C1043.35 360.712 1043.34 360.391 1043.75 360.033C1044.15 359.685 1044.74 359.712 1045.36 360.453C1045.97 361.183 1046 361.896 1045.43 362.541L1047.1 364.537C1048.57 363.264 1048.7 361.301 1046.93 359.187C1045.16 357.072 1043.23 356.888 1041.87 358.07C1040.44 359.307 1040.54 360.497 1041.7 362.362L1042.24 363.227C1042.97 364.396 1042.96 364.866 1042.53 365.242C1042.13 365.581 1041.44 365.445 1040.75 364.629C1040.03 363.77 1039.99 363.086 1040.68 362.32L1038.96 360.26C1037.34 361.662 1037.3 363.641 1039.18 365.895Z" fill="#113545"/>
<path d="M1033.62 336.854L1035.32 335.428L1032.5 331.978L1038.43 326.979L1036.72 324.874L1029.1 331.298L1033.62 336.854ZM1035.87 339.613L1043.5 333.189L1041.78 331.084L1034.16 337.508L1035.87 339.613ZM1038.47 342.803L1041.57 340.196L1044.47 343.755L1046.05 342.42L1043.15 338.86L1044.4 337.805L1047.59 341.711L1049.28 340.286L1044.38 334.274L1036.76 340.698L1038.47 342.803ZM1047.09 353.375L1048.78 351.95L1045.6 348.043L1047 346.861L1049.9 350.421L1051.49 349.085L1048.58 345.526L1049.84 344.47L1053.02 348.377L1054.71 346.951L1049.81 340.94L1042.19 347.364L1047.09 353.375Z" fill="#113545"/>
<path d="M1064.85 394.111C1069.15 399.118 1074.86 399.74 1078.74 396.301L1075.96 393.071C1073.21 394.983 1070.21 394.733 1067.59 391.679C1064.52 388.099 1065.17 384.253 1069.22 380.66C1073.27 377.067 1077.1 376.926 1080.18 380.506C1082.84 383.61 1082.54 386.702 1080.55 388.996L1083.33 392.226C1087.13 388.852 1087.13 382.981 1082.92 378.074C1078.06 372.416 1071.65 372.501 1066.3 377.255C1060.94 382.009 1059.99 388.453 1064.85 394.111ZM1087.5 419.973L1099.37 397.74L1095.76 393.534L1072.49 402.499L1075.5 406.003L1080.31 404.113L1086.98 411.874L1084.49 416.468L1087.5 419.973ZM1088.84 408.722L1083.62 402.639L1094.51 398.354L1088.84 408.722ZM1113.58 424.567C1116.64 421.85 1116.78 418.016 1113.52 414.211L1106.4 405.924L1088.83 421.523L1091.75 424.928L1098.86 418.618L1102.34 422.674C1103.85 424.426 1104.47 426.213 1102.3 428.141L1099.66 430.485C1098.89 431.165 1098.5 431.822 1098.22 432.463L1101.02 435.718C1101.31 435.195 1101.84 434.547 1102.58 433.89L1105.35 431.437C1107.29 429.706 1107.77 427.521 1106.53 425.221C1108.89 426.748 1111.36 426.538 1113.58 424.567ZM1110.43 421.359C1108.78 422.827 1106.97 422.893 1105.25 420.89L1101.38 416.384L1106.81 411.564L1110.68 416.07C1112.4 418.073 1112.09 419.891 1110.43 421.359ZM1114.16 451.019L1116.9 448.587L1108.66 438.999L1113.6 434.617L1121.15 443.404L1123.71 441.126L1116.17 432.339L1120.76 428.264L1128.99 437.852L1131.73 435.42L1120.57 422.427L1103 438.026L1114.16 451.019ZM1127.11 466.104L1129.85 463.672L1121.62 454.083L1126.55 449.702L1134.1 458.489L1136.67 456.211L1129.12 447.423L1133.71 443.348L1141.95 452.937L1144.69 450.505L1133.53 437.512L1115.96 453.11L1127.11 466.104ZM1153.66 471.239C1156.72 468.522 1156.87 464.688 1153.6 460.883L1146.48 452.596L1128.91 468.195L1131.83 471.6L1138.94 465.29L1142.42 469.346C1143.93 471.098 1144.55 472.885 1142.38 474.813L1139.74 477.157C1138.97 477.837 1138.58 478.494 1138.31 479.135L1141.1 482.39C1141.39 481.867 1141.92 481.219 1142.66 480.562L1145.43 478.108C1147.38 476.378 1147.85 474.193 1146.61 471.893C1148.97 473.42 1151.44 473.21 1153.66 471.239ZM1150.52 468.031C1148.86 469.499 1147.05 469.565 1145.33 467.562L1141.46 463.056L1146.89 458.236L1150.76 462.742C1152.48 464.745 1152.17 466.563 1150.52 468.031Z" fill="#113545"/>
<circle cx="823" cy="88.0001" r="13.5" stroke="black" stroke-width="5"/>
<circle r="37.5" transform="matrix(-1 0 0 1 145 371)" stroke="black" stroke-width="5"/>
<circle r="2.5" transform="matrix(-1 0 0 1 171 352)" stroke="black" stroke-width="3"/>
<circle r="2.5" transform="matrix(-1 0 0 1 154 356)" stroke="black" stroke-width="3"/>
<circle r="4" transform="matrix(-1 0 0 1 145 379)" fill="#FFB8EF"/>
<line x1="152.324" y1="407.079" x2="194.324" y2="513.079" stroke="black" stroke-width="5"/>
<line x1="235.15" y1="461.532" x2="193.532" y2="506.85" stroke="black" stroke-width="5" stroke-linecap="round"/>
<line x1="235.4" y1="461.971" x2="262.971" y2="511.6" stroke="black" stroke-width="5" stroke-linecap="round"/>
<line x1="251.419" y1="466.487" x2="192.487" y2="508.581" stroke="black" stroke-width="5" stroke-linecap="round"/>
<line x1="122.177" y1="450.551" x2="142.871" y2="510.731" stroke="black" stroke-width="5" stroke-linecap="round"/>
<line x1="252.438" y1="465.827" x2="279.827" y2="510.562" stroke="black" stroke-width="5" stroke-linecap="round"/>
<line x1="122.599" y1="449.516" x2="158.142" y2="424.401" stroke="black" stroke-width="5" stroke-linecap="round"/>
<line x1="138.114" y1="450.675" x2="156.173" y2="510.794" stroke="black" stroke-width="5" stroke-linecap="round"/>
<line x1="138.5" y1="449.5" x2="156.5" y2="425.5" stroke="black" stroke-width="5" stroke-linecap="round"/>
<mask id="path-158-inside-8_123_5" fill="white">
<path d="M165.81 378.029C165.486 377.095 167.373 375.029 171.975 373.432C176.577 371.835 178.103 372.76 178.427 373.694C178.752 374.628 177.149 374.275 172.547 375.872C167.945 377.469 166.134 378.963 165.81 378.029Z"/>
</mask>
<path d="M170.534 376.39C171.143 378.148 170.434 379.444 170.313 379.652C170.123 379.979 170.008 380.017 170.233 379.831C170.651 379.485 171.695 378.821 173.614 378.156L170.336 368.708C167.652 369.639 165.452 370.807 163.857 372.127C163.075 372.774 162.262 373.604 161.665 374.63C161.138 375.538 160.314 377.444 161.086 379.668L170.534 376.39ZM173.614 378.156C174.553 377.83 175.214 377.676 175.645 377.609C176.085 377.541 176.194 377.578 176.07 377.56C175.935 377.539 175.483 377.444 174.953 377.052C174.399 376.641 173.95 376.042 173.704 375.333L183.151 372.055C182.246 369.446 179.94 368.025 177.541 367.668C175.385 367.348 172.958 367.799 170.336 368.708L173.614 378.156ZM173.704 375.333C173.575 374.96 173.292 373.97 173.621 372.719C173.981 371.348 174.842 370.514 175.43 370.104C175.928 369.757 176.339 369.63 176.341 369.629C176.387 369.614 176.357 369.626 176.149 369.677C175.34 369.874 173.492 370.252 170.908 371.148L174.186 380.596C176.204 379.896 177.458 379.651 178.52 379.392C178.78 379.329 179.141 379.237 179.505 379.116C179.824 379.009 180.481 378.774 181.155 378.303C181.919 377.77 182.888 376.798 183.292 375.261C183.665 373.844 183.361 372.661 183.151 372.055L173.704 375.333ZM170.908 371.148C168.388 372.023 166.479 372.931 165.61 373.301C165.379 373.4 165.273 373.44 165.239 373.452C165.175 373.474 165.393 373.389 165.77 373.345C166.119 373.304 167.125 373.232 168.265 373.811C169.573 374.474 170.248 375.566 170.534 376.39L161.086 379.668C161.453 380.725 162.255 381.975 163.742 382.729C165.061 383.398 166.298 383.351 166.935 383.277C168.059 383.145 169.122 382.676 169.538 382.498C170.807 381.956 172.105 381.318 174.186 380.596L170.908 371.148Z" fill="black" mask="url(#path-158-inside-8_123_5)"/>
<path d="M1861.91 496.747V257.986L1861.92 243.749V165.253L1873.02 84.8884C1873.3 82.8167 1872.86 80.6854 1871.79 79.0757C1870.73 77.4661 1869.16 76.5321 1867.51 76.5321H1813.19C1810.1 76.5321 1807.6 79.7216 1807.6 83.6564V107.414H1780.66V83.6564C1780.66 79.7216 1778.16 76.5321 1775.06 76.5321L1746.96 76.5367H1730.58C1727.49 76.5367 1724.99 79.7262 1724.99 83.6609V107.419H1698.05V83.6609C1698.05 79.7262 1695.55 76.5367 1692.46 76.5367H1637.6C1635.94 76.5367 1634.37 77.4707 1633.3 79.0902C1632.24 80.7048 1631.8 82.8411 1632.09 84.9178L1643.19 163.687L1643.2 257.993V511H1861.91V497.526M1746.96 322.398V496.741H1697.69C1697.51 480.664 1698.66 386.926 1746.96 322.398ZM1758.15 322.403C1806.36 386.85 1807.58 480.657 1807.42 496.746H1758.15V322.403ZM1756.25 300.326C1754.13 297.966 1750.98 297.966 1748.86 300.326C1687.5 368.96 1686.18 476.741 1686.49 496.747L1654.38 496.742V170.174H1850.73V496.742H1818.62C1818.93 476.737 1817.61 368.949 1756.25 300.321L1756.25 300.326ZM1686.87 90.7785V114.536C1686.87 118.471 1689.38 121.661 1692.47 121.661H1730.59C1733.68 121.661 1736.19 118.471 1736.19 114.536V90.7785H1769.48V114.536C1769.48 118.471 1771.98 121.661 1775.07 121.661H1813.19C1816.29 121.661 1818.79 118.471 1818.79 114.536V90.7785H1860.85L1851.85 155.931H1653.47L1644.28 90.7785H1686.87Z" stroke="black" stroke-width="5"/>
<path d="M1733.61 0.0131488C1741.52 0.187962 1749.37 2.02598 1756.53 5.62316C1757.48 6.09862 1758.1 6.97762 1758.1 7.87276V73.7451C1758.1 75.2173 1756.6 76.4112 1754.74 76.4112C1752.88 76.4112 1751.38 75.2173 1751.38 73.7451V41.4754C1747.2 39.5481 1733.41 34.2618 1716.83 39.948C1706.93 43.3443 1699.39 44.0349 1694.19 43.808C1689 43.5811 1685.82 42.2527 1685.82 42.2527C1684.79 41.7952 1684.11 40.8821 1684.1 39.948V7.84502C1684.09 6.92139 1684.74 6.01135 1685.74 5.53719C1686.74 5.06297 1688.06 5.0419 1689.08 5.4845C1689.08 5.4845 1690.43 6.15831 1694.51 6.31762C1698.59 6.47693 1705.06 5.96242 1714.2 2.92927C1719.38 1.21097 1724.79 0.245181 1730.22 0.0412639C1731.35 -0.00150788 1732.48 -0.0114262 1733.61 0.0133691L1733.61 0.0131488ZM1733.19 5.2896C1732.3 5.27286 1731.42 5.28278 1730.53 5.31749C1725.91 5.50035 1721.28 6.35456 1716.79 7.84479C1706.86 11.1425 1699.32 11.8505 1694.16 11.6497C1692.75 11.5945 1691.92 11.3726 1690.83 11.2052V38.0604C1691.69 38.2358 1692.76 38.4267 1694.54 38.5049C1698.62 38.6834 1705.09 38.1738 1714.17 35.0614C1730.14 29.5847 1744.13 32.9656 1751.38 35.589V9.42887C1745.59 6.79382 1739.42 5.40766 1733.19 5.29118L1733.19 5.2896Z" fill="black"/>
<path d="M1725.48 20.7932C1725.79 20.7932 1726.1 20.818 1726.41 20.8674C1727.13 20.9857 1727.81 21.2433 1728.38 21.6178C1728.96 21.9924 1729.41 22.4729 1729.7 23.0181C1729.94 23.4651 1730.06 23.9461 1730.06 24.432C1730.06 24.6777 1730.03 24.9229 1729.97 25.1641C1729.91 25.3976 1729.83 25.6261 1729.72 25.8466C1729.61 26.0624 1729.47 26.2693 1729.32 26.4645C1729.16 26.6575 1728.98 26.8379 1728.78 27.0033C1728.17 27.5095 1727.38 27.8558 1726.52 27.9966C1726.21 28.0461 1725.9 28.071 1725.59 28.0708H1721.07L1721.12 28.0488L1721.13 28.0467L1721.13 28.0436C1721.54 27.7394 1721.54 27.6586 1721.53 27.3576C1721.53 27.3455 1721.53 27.3328 1721.52 27.3198V27.2714L1722.27 25.448L1722.37 27.9046L1722.37 27.9398H1724.97C1727.39 27.9398 1729.28 26.399 1729.28 24.4321C1729.28 22.498 1727.3 20.9245 1724.86 20.9245H1722.26L1722.26 20.9608L1722.27 22.0594L1721.46 23.7986L1721.47 21.8312V21.8302V21.8292C1721.44 21.4522 1721.4 21.2323 1721.34 21.094C1721.27 20.9553 1721.17 20.9028 1721.06 20.8364C1721.04 20.825 1721.02 20.8132 1720.99 20.8004L1720.99 20.7988L1720.99 20.7975L1720.98 20.7932H1725.48ZM1725.48 20.7569H1720.79L1720.97 20.8297C1721.24 20.9898 1721.37 20.9897 1721.42 21.8311L1721.42 24.0023L1722.31 22.0658L1722.31 20.9607H1724.86C1727.28 20.9607 1729.23 22.5098 1729.23 24.432C1729.23 26.3429 1727.39 27.9033 1724.97 27.9033H1722.42L1722.31 25.2413L1721.48 27.2656V27.3204C1721.49 27.6492 1721.51 27.7118 1721.1 28.0171L1720.89 28.1072H1725.59C1728.16 28.1072 1730.1 26.4562 1730.1 24.4321C1730.1 22.408 1728.04 20.7569 1725.48 20.7569Z" fill="#113545"/>
<path d="M1723.64 20.3889L1725.44 16.7792L1725.44 16.7787C1725.66 16.25 1725.59 15.6108 1725.27 15.1504L1725.27 15.141H1727.68L1727.13 15.434C1726.57 15.7303 1726.08 16.22 1725.84 16.712L1724.04 20.3889H1723.64Z" fill="#113545"/>
<path d="M1720.98 28.089L1721.11 28.0319L1721.11 28.0303C1721.52 27.7317 1721.51 27.66 1721.5 27.3581C1721.5 27.3459 1721.5 27.3332 1721.5 27.3201V27.2684L1722.29 25.3446L1722.39 27.9215H1724.97C1727.38 27.9215 1729.26 26.3887 1729.26 24.432C1729.26 22.5079 1727.29 20.9425 1724.86 20.9425H1722.28L1722.29 22.0626L1721.44 23.9005L1721.44 21.8307V21.8303C1721.39 21.0485 1721.28 20.9826 1721.04 20.8513C1721.02 20.8398 1721 20.828 1720.98 20.815L1720.98 20.8142L1720.89 20.775H1725.49C1726.11 20.775 1726.71 20.8719 1727.28 21.0632C1728.09 21.3399 1728.8 21.8006 1729.3 22.3898C1729.46 22.5855 1729.61 22.7935 1729.72 23.0111C1729.96 23.4604 1730.08 23.9438 1730.08 24.4322C1730.08 24.9265 1729.97 25.4047 1729.74 25.8536C1729.63 26.0705 1729.49 26.2785 1729.34 26.4746C1729.18 26.6686 1729 26.85 1728.8 27.0162C1727.96 27.7079 1726.82 28.089 1725.59 28.089H1720.98Z" fill="#113545"/>
<path d="M1727.6 15.1594L1727.11 15.4192C1726.56 15.7175 1726.06 16.2103 1725.82 16.7055L1724.02 20.371H1723.67L1725.46 16.7866L1725.46 16.7857L1725.46 16.7847C1725.68 16.258 1725.62 15.6226 1725.3 15.1594H1727.6ZM1727.75 15.1231H1725.23L1725.25 15.1594C1725.58 15.6309 1725.63 16.2655 1725.42 16.7732L1723.6 20.4073H1724.05L1725.86 16.7188C1726.1 16.2292 1726.6 15.7396 1727.14 15.4495L1727.75 15.1231H1727.75Z" fill="#113545"/>
<path d="M1719.68 26.8729L1713.98 16.7289C1713.46 15.859 1713.38 15.7887 1712.75 15.414L1712.75 15.4134L1712.19 15.141H1715.68L1715.65 15.2052C1715.32 15.6445 1715.27 16.2341 1715.53 16.7077L1720.83 26.3043L1723.17 21.3306H1723.57L1721.11 26.8729H1719.68Z" fill="#113545"/>
<path d="M1715.65 15.1594L1715.63 15.1972C1715.29 15.6413 1715.25 16.2368 1715.51 16.7153L1720.78 26.2714L1720.83 26.3524L1720.87 26.2695L1723.19 21.3488H1723.54L1721.09 26.855H1719.7L1714 16.722L1714 16.7216L1714 16.7213C1713.48 15.8475 1713.39 15.7769 1712.77 15.3997L1712.76 15.3985L1712.76 15.3976L1712.27 15.1594H1715.65ZM1715.72 15.1231H1712.1L1712.74 15.4287C1713.37 15.8081 1713.45 15.8799 1713.96 16.737L1719.67 26.8913H1721.12L1723.6 21.3125H1723.16L1720.82 26.2567L1715.55 16.7007C1715.29 16.2292 1715.34 15.649 1715.67 15.2139L1715.72 15.1231Z" fill="#113545"/>
<path d="M1720.98 28.089L1721.11 28.0319L1721.11 28.0303C1721.52 27.7317 1721.51 27.66 1721.5 27.3581C1721.5 27.3459 1721.5 27.3332 1721.5 27.3201V27.2684L1722.29 25.3446L1722.39 27.9215H1724.97C1727.38 27.9215 1729.26 26.3887 1729.26 24.432C1729.26 22.5079 1727.29 20.9425 1724.86 20.9425H1722.28L1722.29 22.0626L1721.44 23.9005L1721.44 21.8307V21.8303C1721.39 21.0485 1721.28 20.9826 1721.04 20.8513C1721.02 20.8398 1721 20.828 1720.98 20.815L1720.98 20.8142L1720.89 20.775H1725.48C1726.11 20.775 1726.71 20.8719 1727.27 21.0632C1728.09 21.3399 1728.8 21.8006 1729.3 22.3898C1729.46 22.5854 1729.6 22.7935 1729.72 23.0111C1729.96 23.4604 1730.08 23.9438 1730.08 24.4321C1730.08 24.9265 1729.97 25.4047 1729.74 25.8536C1729.63 26.0705 1729.49 26.2785 1729.33 26.4746C1729.18 26.6686 1729 26.85 1728.8 27.0162C1727.96 27.7079 1726.82 28.089 1725.59 28.089H1720.98Z" fill="#113545"/>
<path d="M1727.6 15.1594L1727.11 15.4192C1726.56 15.7175 1726.06 16.2103 1725.82 16.7055L1724.02 20.3709H1723.67L1725.46 16.7866L1725.46 16.7857L1725.46 16.7847C1725.68 16.258 1725.62 15.6226 1725.3 15.1594H1727.6ZM1727.75 15.1231H1725.23L1725.25 15.1594C1725.58 15.6308 1725.63 16.2655 1725.42 16.7732L1723.6 20.4073H1724.05L1725.86 16.7188C1726.1 16.2292 1726.6 15.7396 1727.14 15.4495L1727.75 15.1231H1727.75Z" fill="#113545"/>
<path d="M1715.65 15.1594L1715.63 15.1972C1715.29 15.6413 1715.25 16.2368 1715.51 16.7153L1720.78 26.2714L1720.83 26.3524L1720.87 26.2695L1723.19 21.3488H1723.54L1721.09 26.855H1719.7L1714 16.722L1714 16.7216L1714 16.7213C1713.48 15.8475 1713.39 15.7769 1712.77 15.3997L1712.76 15.3985L1712.76 15.3976L1712.27 15.1594H1715.65ZM1715.72 15.1231H1712.1L1712.74 15.4287C1713.37 15.8081 1713.45 15.8799 1713.96 16.737L1719.67 26.8913H1721.12L1723.6 21.3125H1723.16L1720.82 26.2567L1715.55 16.7007C1715.29 16.2292 1715.34 15.649 1715.67 15.2139L1715.72 15.1231Z" fill="#113545"/>
<path d="M1889.5 419C1874.33 419 1862 435.84 1862 456.539V503.316C1862 507.56 1864.52 511 1867.63 511H1911.37C1914.48 511 1917 507.56 1917 503.316V456.539C1917 435.84 1904.66 419 1889.5 419H1889.5ZM1905.74 495.643H1873.25V456.545C1873.25 444.317 1880.54 434.367 1889.5 434.367C1898.46 434.367 1905.74 444.317 1905.74 456.545V495.643Z" stroke="black" stroke-width="5"/>
<path d="M1615.5 419C1600.33 419 1588 435.84 1588 456.539V503.316C1588 507.56 1590.52 511 1593.63 511H1637.37C1640.48 511 1643 507.56 1643 503.316V456.539C1643 435.84 1630.66 419 1615.5 419H1615.5ZM1631.74 495.643H1599.25V456.545C1599.25 444.317 1606.54 434.367 1615.5 434.367C1624.46 434.367 1631.74 444.317 1631.74 456.545V495.643Z" stroke="black" stroke-width="5"/>
</svg>
